<svg width="883" height="363" viewBox="0 0 883 363" fill="none" xmlns="http://www.w3.org/2000/svg">
<g filter="url(#filter0_d_41_42)">
<path d="M4 294V33.8508C4 15.1555 19.1555 0 37.8508 0C56.546 0 71.7016 15.1555 71.7016 33.8508V47.5803C71.7016 73.8581 93.004 95.1605 119.282 95.1605H171.787C187.208 95.1605 199.709 82.6597 199.709 67.2392C199.709 51.8186 212.21 39.3178 227.63 39.3178H818C851.689 39.3178 879 66.6284 879 100.318V294C879 327.689 851.689 355 818 355H65C31.3106 355 4 327.689 4 294Z" fill="white"/>
</g>
<defs>
<filter id="filter0_d_41_42" x="0" y="0" width="883" height="363" filterUnits="userSpaceOnUse" color-interpolation-filters="sRGB">
<feFlood flood-opacity="0" result="BackgroundImageFix"/>
<feColorMatrix in="SourceAlpha" type="matrix" values="0 0 0 0 0 0 0 0 0 0 0 0 0 0 0 0 0 0 127 0" result="hardAlpha"/>
<feOffset dy="4"/>
<feGaussianBlur stdDeviation="2"/>
<feComposite in2="hardAlpha" operator="out"/>
<feColorMatrix type="matrix" values="0 0 0 0 0 0 0 0 0 0 0 0 0 0 0 0 0 0 0.25 0"/>
<feBlend mode="normal" in2="BackgroundImageFix" result="effect1_dropShadow_41_42"/>
<feBlend mode="normal" in="SourceGraphic" in2="effect1_dropShadow_41_42" result="shape"/>
</filter>
</defs>
</svg>
