<svg width="883" height="363" viewBox="0 0 883 363" fill="none" xmlns="http://www.w3.org/2000/svg">
<g filter="url(#filter0_d_503_441)">
<path d="M4 294V33.8508C4 15.1555 19.1555 0 37.8508 0C56.546 0 71.7016 15.1555 71.7016 33.8508V47.5803C71.7016 73.8581 93.004 95.1605 119.282 95.1605H171.787C187.208 95.1605 199.709 82.6597 199.709 67.2392C199.709 51.8186 212.21 39.3178 227.63 39.3178H818C851.689 39.3178 879 66.6284 879 100.318V294C879 327.689 851.689 355 818 355H65C31.3106 355 4 327.689 4 294Z" fill="white"/>
</g>
<path d="M79.6846 168V165.6H82.8206V148H79.6846V145.6H90.9166C92.218 145.6 93.37 145.835 94.3726 146.304C95.3966 146.773 96.186 147.435 96.7406 148.288C97.3166 149.12 97.6046 150.101 97.6046 151.232V151.488C97.6046 152.533 97.402 153.397 96.9966 154.08C96.5913 154.741 96.1113 155.264 95.5566 155.648C95.002 156.011 94.458 156.277 93.9246 156.448V156.896C94.458 157.024 95.0126 157.28 95.5886 157.664C96.1646 158.027 96.6446 158.549 97.0286 159.232C97.434 159.915 97.6366 160.779 97.6366 161.824V162.144C97.6366 163.36 97.338 164.416 96.7406 165.312C96.1646 166.187 95.3646 166.859 94.3406 167.328C93.338 167.776 92.186 168 90.8846 168H79.6846ZM85.5086 165.568H90.5966C92.0046 165.568 93.082 165.237 93.8286 164.576C94.5753 163.915 94.9486 163.019 94.9486 161.888V161.6C94.9486 160.469 94.5753 159.573 93.8286 158.912C93.082 158.251 92.0046 157.92 90.5966 157.92H85.5086V165.568ZM85.5086 155.488H90.6926C91.9726 155.488 92.9966 155.168 93.7646 154.528C94.5326 153.867 94.9166 153.003 94.9166 151.936V151.616C94.9166 150.528 94.5326 149.664 93.7646 149.024C93.018 148.363 91.994 148.032 90.6926 148.032H85.5086V155.488ZM107.337 168.288C106.206 168.288 105.161 168.043 104.201 167.552C103.262 167.061 102.516 166.336 101.961 165.376C101.428 164.395 101.161 163.211 101.161 161.824V152.352H103.689V161.632C103.689 163.189 104.073 164.32 104.841 165.024C105.63 165.728 106.686 166.08 108.009 166.08C109.502 166.08 110.729 165.589 111.689 164.608C112.649 163.627 113.129 162.165 113.129 160.224V152.352H115.657V168H113.193V165.344H112.745C112.404 166.091 111.817 166.773 110.985 167.392C110.153 167.989 108.937 168.288 107.337 168.288ZM126.067 168C125.171 168 124.477 167.755 123.987 167.264C123.517 166.773 123.283 166.101 123.283 165.248V154.56H118.579V152.352H123.283V146.784H125.811V152.352H130.931V154.56H125.811V164.864C125.811 165.504 126.12 165.824 126.739 165.824H130.227V168H126.067ZM144.14 168L141.004 152.352H143.564L146.156 166.304H146.604L150.028 152.352H154.22L157.644 166.304H158.092L160.684 152.352H163.244L160.108 168H155.788L152.332 154.048H151.916L148.46 168H144.14ZM173.805 168.448C172.226 168.448 170.839 168.117 169.645 167.456C168.45 166.773 167.522 165.824 166.861 164.608C166.199 163.392 165.869 161.984 165.869 160.384V160C165.869 158.379 166.199 156.96 166.861 155.744C167.522 154.528 168.439 153.589 169.613 152.928C170.786 152.245 172.13 151.904 173.645 151.904C175.117 151.904 176.418 152.224 177.549 152.864C178.679 153.483 179.565 154.379 180.205 155.552C180.845 156.725 181.165 158.101 181.165 159.68V160.832H168.397C168.461 162.517 169.005 163.84 170.029 164.8C171.053 165.739 172.333 166.208 173.869 166.208C175.213 166.208 176.247 165.899 176.973 165.28C177.698 164.661 178.253 163.925 178.637 163.072L180.813 164.128C180.493 164.789 180.045 165.451 179.469 166.112C178.914 166.773 178.178 167.328 177.261 167.776C176.365 168.224 175.213 168.448 173.805 168.448ZM168.429 158.752H178.605C178.519 157.301 178.018 156.171 177.101 155.36C176.205 154.549 175.053 154.144 173.645 154.144C172.215 154.144 171.042 154.549 170.125 155.36C169.207 156.171 168.642 157.301 168.429 158.752ZM197.313 168.448C196.225 168.448 195.233 168.256 194.337 167.872C193.441 167.488 192.737 166.933 192.225 166.208C191.713 165.483 191.457 164.597 191.457 163.552C191.457 162.485 191.713 161.611 192.225 160.928C192.737 160.224 193.441 159.701 194.337 159.36C195.233 158.997 196.236 158.816 197.345 158.816H202.625V157.664C202.625 156.555 202.294 155.68 201.633 155.04C200.993 154.4 200.033 154.08 198.753 154.08C197.494 154.08 196.513 154.389 195.809 155.008C195.105 155.605 194.625 156.416 194.369 157.44L192.001 156.672C192.257 155.797 192.662 155.008 193.217 154.304C193.772 153.579 194.508 153.003 195.425 152.576C196.364 152.128 197.484 151.904 198.785 151.904C200.79 151.904 202.348 152.427 203.457 153.472C204.566 154.496 205.121 155.947 205.121 157.824V164.896C205.121 165.536 205.42 165.856 206.017 165.856H207.457V168H205.249C204.545 168 203.98 167.808 203.553 167.424C203.126 167.019 202.913 166.485 202.913 165.824V165.664H202.529C202.294 166.069 201.974 166.496 201.569 166.944C201.185 167.371 200.652 167.723 199.969 168C199.286 168.299 198.401 168.448 197.313 168.448ZM197.601 166.272C199.094 166.272 200.3 165.835 201.217 164.96C202.156 164.064 202.625 162.816 202.625 161.216V160.864H197.441C196.438 160.864 195.606 161.088 194.945 161.536C194.305 161.963 193.985 162.613 193.985 163.488C193.985 164.363 194.316 165.045 194.977 165.536C195.66 166.027 196.534 166.272 197.601 166.272ZM210.279 168V152.352H212.743V154.272H213.191C213.468 153.589 213.895 153.088 214.471 152.768C215.047 152.448 215.804 152.288 216.743 152.288H218.599V154.592H216.583C215.452 154.592 214.535 154.912 213.831 155.552C213.148 156.171 212.807 157.141 212.807 158.464V168H210.279ZM228.307 168.448C226.728 168.448 225.342 168.117 224.147 167.456C222.952 166.773 222.024 165.824 221.363 164.608C220.702 163.392 220.371 161.984 220.371 160.384V160C220.371 158.379 220.702 156.96 221.363 155.744C222.024 154.528 222.942 153.589 224.115 152.928C225.288 152.245 226.632 151.904 228.147 151.904C229.619 151.904 230.92 152.224 232.051 152.864C233.182 153.483 234.067 154.379 234.707 155.552C235.347 156.725 235.667 158.101 235.667 159.68V160.832H222.899C222.963 162.517 223.507 163.84 224.531 164.8C225.555 165.739 226.835 166.208 228.371 166.208C229.715 166.208 230.75 165.899 231.475 165.28C232.2 164.661 232.755 163.925 233.139 163.072L235.315 164.128C234.995 164.789 234.547 165.451 233.971 166.112C233.416 166.773 232.68 167.328 231.763 167.776C230.867 168.224 229.715 168.448 228.307 168.448ZM222.931 158.752H233.107C233.022 157.301 232.52 156.171 231.603 155.36C230.707 154.549 229.555 154.144 228.147 154.144C226.718 154.144 225.544 154.549 224.627 155.36C223.71 156.171 223.144 157.301 222.931 158.752ZM253.639 168.448C252.295 168.448 251.058 168.128 249.927 167.488C248.797 166.848 247.901 165.92 247.239 164.704C246.578 163.488 246.247 162.048 246.247 160.384V159.968C246.247 158.304 246.578 156.875 247.239 155.68C247.901 154.464 248.786 153.536 249.895 152.896C251.026 152.235 252.274 151.904 253.639 151.904C254.727 151.904 255.645 152.053 256.391 152.352C257.159 152.629 257.778 152.992 258.247 153.44C258.717 153.867 259.079 154.325 259.335 154.816H259.783V145.6H262.311V168H259.847V165.408H259.399C258.973 166.197 258.311 166.901 257.415 167.52C256.519 168.139 255.261 168.448 253.639 168.448ZM254.311 166.208C255.933 166.208 257.245 165.696 258.247 164.672C259.271 163.627 259.783 162.176 259.783 160.32V160.032C259.783 158.176 259.271 156.736 258.247 155.712C257.245 154.667 255.933 154.144 254.311 154.144C252.711 154.144 251.389 154.667 250.343 155.712C249.319 156.736 248.807 158.176 248.807 160.032V160.32C248.807 162.176 249.319 163.627 250.343 164.672C251.389 165.696 252.711 166.208 254.311 166.208ZM266.969 168V152.352H269.497V168H266.969ZM268.249 149.92C267.694 149.92 267.225 149.739 266.841 149.376C266.478 149.013 266.297 148.555 266.297 148C266.297 147.424 266.478 146.955 266.841 146.592C267.225 146.229 267.694 146.048 268.249 146.048C268.804 146.048 269.262 146.229 269.625 146.592C269.988 146.955 270.169 147.424 270.169 148C270.169 148.555 269.988 149.013 269.625 149.376C269.262 149.739 268.804 149.92 268.249 149.92ZM277.245 168V154.56H272.445V152.352H277.245V148.352C277.245 147.499 277.48 146.827 277.949 146.336C278.44 145.845 279.133 145.6 280.029 145.6H283.965V147.776H280.733C280.093 147.776 279.773 148.096 279.773 148.736V152.352H283.709V154.56H279.773V168H277.245ZM287.549 168V154.56H283.709V152.352H287.549V148.352C287.549 147.499 287.784 146.827 288.253 146.336C288.744 145.845 289.437 145.6 290.333 145.6H294.269V147.776H291.005C290.386 147.776 290.077 148.096 290.077 148.736V152.352H295.005V154.56H290.077V168H287.549ZM304.326 168.448C302.747 168.448 301.361 168.117 300.166 167.456C298.971 166.773 298.043 165.824 297.382 164.608C296.721 163.392 296.39 161.984 296.39 160.384V160C296.39 158.379 296.721 156.96 297.382 155.744C298.043 154.528 298.961 153.589 300.134 152.928C301.307 152.245 302.651 151.904 304.166 151.904C305.638 151.904 306.939 152.224 308.07 152.864C309.201 153.483 310.086 154.379 310.726 155.552C311.366 156.725 311.686 158.101 311.686 159.68V160.832H298.918C298.982 162.517 299.526 163.84 300.55 164.8C301.574 165.739 302.854 166.208 304.39 166.208C305.734 166.208 306.769 165.899 307.494 165.28C308.219 164.661 308.774 163.925 309.158 163.072L311.334 164.128C311.014 164.789 310.566 165.451 309.99 166.112C309.435 166.773 308.699 167.328 307.782 167.776C306.886 168.224 305.734 168.448 304.326 168.448ZM298.95 158.752H309.126C309.041 157.301 308.539 156.171 307.622 155.36C306.726 154.549 305.574 154.144 304.166 154.144C302.737 154.144 301.563 154.549 300.646 155.36C299.729 156.171 299.163 157.301 298.95 158.752ZM315.455 168V152.352H317.919V154.272H318.367C318.645 153.589 319.071 153.088 319.647 152.768C320.223 152.448 320.981 152.288 321.919 152.288H323.775V154.592H321.759C320.629 154.592 319.711 154.912 319.007 155.552C318.325 156.171 317.983 157.141 317.983 158.464V168H315.455ZM333.483 168.448C331.905 168.448 330.518 168.117 329.323 167.456C328.129 166.773 327.201 165.824 326.539 164.608C325.878 163.392 325.547 161.984 325.547 160.384V160C325.547 158.379 325.878 156.96 326.539 155.744C327.201 154.528 328.118 153.589 329.291 152.928C330.465 152.245 331.809 151.904 333.323 151.904C334.795 151.904 336.097 152.224 337.227 152.864C338.358 153.483 339.243 154.379 339.883 155.552C340.523 156.725 340.843 158.101 340.843 159.68V160.832H328.075C328.139 162.517 328.683 163.84 329.707 164.8C330.731 165.739 332.011 166.208 333.547 166.208C334.891 166.208 335.926 165.899 336.651 165.28C337.377 164.661 337.931 163.925 338.315 163.072L340.491 164.128C340.171 164.789 339.723 165.451 339.147 166.112C338.593 166.773 337.857 167.328 336.939 167.776C336.043 168.224 334.891 168.448 333.483 168.448ZM328.107 158.752H338.283C338.198 157.301 337.697 156.171 336.779 155.36C335.883 154.549 334.731 154.144 333.323 154.144C331.894 154.144 330.721 154.549 329.803 155.36C328.886 156.171 328.321 157.301 328.107 158.752ZM344.613 168V152.352H347.077V155.008H347.525C347.866 154.261 348.442 153.589 349.253 152.992C350.085 152.373 351.301 152.064 352.901 152.064C354.074 152.064 355.12 152.309 356.037 152.8C356.976 153.291 357.722 154.016 358.277 154.976C358.832 155.936 359.109 157.12 359.109 158.528V168H356.581V158.72C356.581 157.163 356.186 156.032 355.397 155.328C354.629 154.624 353.584 154.272 352.261 154.272C350.746 154.272 349.509 154.763 348.549 155.744C347.61 156.725 347.141 158.187 347.141 160.128V168H344.613ZM368.92 168C368.024 168 367.331 167.755 366.84 167.264C366.371 166.773 366.136 166.101 366.136 165.248V154.56H361.432V152.352H366.136V146.784H368.664V152.352H373.784V154.56H368.664V164.864C368.664 165.504 368.974 165.824 369.592 165.824H373.08V168H368.92ZM376.983 172V170.4H377.911C378.679 170.4 379.063 170.016 379.063 169.248V168.224H378.615C377.996 168.224 377.474 168.032 377.047 167.648C376.642 167.264 376.439 166.784 376.439 166.208C376.439 165.589 376.642 165.088 377.047 164.704C377.474 164.32 377.996 164.128 378.615 164.128C379.234 164.128 379.746 164.331 380.151 164.736C380.556 165.141 380.759 165.653 380.759 166.272V169.248C380.759 171.083 379.842 172 378.007 172H376.983ZM399.819 168.448C398.197 168.448 396.928 168.139 396.011 167.52C395.115 166.901 394.464 166.197 394.059 165.408H393.611V168H391.147V145.6H393.675V154.816H394.123C394.379 154.325 394.741 153.867 395.211 153.44C395.68 152.992 396.288 152.629 397.035 152.352C397.803 152.053 398.731 151.904 399.819 151.904C401.184 151.904 402.421 152.235 403.531 152.896C404.661 153.536 405.557 154.464 406.219 155.68C406.88 156.875 407.211 158.304 407.211 159.968V160.384C407.211 162.048 406.869 163.488 406.187 164.704C405.525 165.92 404.629 166.848 403.499 167.488C402.389 168.128 401.163 168.448 399.819 168.448ZM399.147 166.208C400.768 166.208 402.08 165.696 403.083 164.672C404.107 163.627 404.619 162.176 404.619 160.32V160.032C404.619 158.176 404.107 156.736 403.083 155.712C402.08 154.667 400.768 154.144 399.147 154.144C397.547 154.144 396.224 154.667 395.179 155.712C394.155 156.736 393.643 158.176 393.643 160.032V160.32C393.643 162.176 394.155 163.627 395.179 164.672C396.224 165.696 397.547 166.208 399.147 166.208ZM418.268 168.448C416.69 168.448 415.303 168.117 414.108 167.456C412.914 166.773 411.986 165.824 411.324 164.608C410.663 163.392 410.332 161.984 410.332 160.384V160C410.332 158.379 410.663 156.96 411.324 155.744C411.986 154.528 412.903 153.589 414.076 152.928C415.25 152.245 416.594 151.904 418.108 151.904C419.58 151.904 420.882 152.224 422.012 152.864C423.143 153.483 424.028 154.379 424.668 155.552C425.308 156.725 425.628 158.101 425.628 159.68V160.832H412.86C412.924 162.517 413.468 163.84 414.492 164.8C415.516 165.739 416.796 166.208 418.332 166.208C419.676 166.208 420.711 165.899 421.436 165.28C422.162 164.661 422.716 163.925 423.1 163.072L425.276 164.128C424.956 164.789 424.508 165.451 423.932 166.112C423.378 166.773 422.642 167.328 421.724 167.776C420.828 168.224 419.676 168.448 418.268 168.448ZM412.892 158.752H423.068C422.983 157.301 422.482 156.171 421.564 155.36C420.668 154.549 419.516 154.144 418.108 154.144C416.679 154.144 415.506 154.549 414.588 155.36C413.671 156.171 413.106 157.301 412.892 158.752ZM436.598 168.448C435.083 168.448 433.718 168.128 432.502 167.488C431.307 166.827 430.358 165.888 429.654 164.672C428.971 163.456 428.63 162.016 428.63 160.352V160C428.63 158.315 428.971 156.875 429.654 155.68C430.358 154.464 431.307 153.536 432.502 152.896C433.718 152.235 435.083 151.904 436.598 151.904C438.091 151.904 439.361 152.181 440.406 152.736C441.473 153.291 442.305 154.027 442.902 154.944C443.521 155.861 443.915 156.843 444.086 157.888L441.622 158.4C441.515 157.632 441.259 156.928 440.854 156.288C440.47 155.648 439.926 155.136 439.222 154.752C438.518 154.368 437.654 154.176 436.63 154.176C435.585 154.176 434.646 154.411 433.814 154.88C433.003 155.349 432.353 156.021 431.862 156.896C431.393 157.771 431.158 158.816 431.158 160.032V160.32C431.158 161.536 431.393 162.581 431.862 163.456C432.353 164.331 433.003 165.003 433.814 165.472C434.646 165.941 435.585 166.176 436.63 166.176C438.187 166.176 439.371 165.771 440.182 164.96C441.014 164.149 441.526 163.147 441.718 161.952L444.214 162.496C443.979 163.52 443.553 164.491 442.934 165.408C442.315 166.325 441.473 167.061 440.406 167.616C439.361 168.171 438.091 168.448 436.598 168.448ZM452.683 168.448C451.595 168.448 450.603 168.256 449.707 167.872C448.811 167.488 448.107 166.933 447.595 166.208C447.083 165.483 446.827 164.597 446.827 163.552C446.827 162.485 447.083 161.611 447.595 160.928C448.107 160.224 448.811 159.701 449.707 159.36C450.603 158.997 451.606 158.816 452.715 158.816H457.995V157.664C457.995 156.555 457.664 155.68 457.003 155.04C456.363 154.4 455.403 154.08 454.123 154.08C452.864 154.08 451.883 154.389 451.179 155.008C450.475 155.605 449.995 156.416 449.739 157.44L447.371 156.672C447.627 155.797 448.032 155.008 448.587 154.304C449.142 153.579 449.878 153.003 450.795 152.576C451.734 152.128 452.854 151.904 454.155 151.904C456.16 151.904 457.718 152.427 458.827 153.472C459.936 154.496 460.491 155.947 460.491 157.824V164.896C460.491 165.536 460.79 165.856 461.387 165.856H462.827V168H460.619C459.915 168 459.35 167.808 458.923 167.424C458.496 167.019 458.283 166.485 458.283 165.824V165.664H457.899C457.664 166.069 457.344 166.496 456.939 166.944C456.555 167.371 456.022 167.723 455.339 168C454.656 168.299 453.771 168.448 452.683 168.448ZM452.971 166.272C454.464 166.272 455.67 165.835 456.587 164.96C457.526 164.064 457.995 162.816 457.995 161.216V160.864H452.811C451.808 160.864 450.976 161.088 450.315 161.536C449.675 161.963 449.355 162.613 449.355 163.488C449.355 164.363 449.686 165.045 450.347 165.536C451.03 166.027 451.904 166.272 452.971 166.272ZM471.227 168.288C470.096 168.288 469.051 168.043 468.091 167.552C467.152 167.061 466.406 166.336 465.851 165.376C465.318 164.395 465.051 163.211 465.051 161.824V152.352H467.579V161.632C467.579 163.189 467.963 164.32 468.731 165.024C469.52 165.728 470.576 166.08 471.899 166.08C473.392 166.08 474.619 165.589 475.579 164.608C476.539 163.627 477.019 162.165 477.019 160.224V152.352H479.547V168H477.083V165.344H476.635C476.294 166.091 475.707 166.773 474.875 167.392C474.043 167.989 472.827 168.288 471.227 168.288ZM490.501 168.448C488.559 168.448 486.917 168 485.573 167.104C484.25 166.208 483.45 164.789 483.173 162.848L485.573 162.304C485.743 163.328 486.063 164.139 486.533 164.736C487.002 165.312 487.578 165.728 488.261 165.984C488.965 166.219 489.711 166.336 490.501 166.336C491.674 166.336 492.602 166.101 493.285 165.632C493.967 165.163 494.309 164.533 494.309 163.744C494.309 162.933 493.978 162.368 493.317 162.048C492.677 161.707 491.791 161.429 490.661 161.216L489.349 160.992C488.346 160.821 487.429 160.555 486.597 160.192C485.765 159.829 485.103 159.339 484.613 158.72C484.122 158.101 483.877 157.323 483.877 156.384C483.877 154.976 484.421 153.877 485.509 153.088C486.597 152.299 488.037 151.904 489.829 151.904C491.599 151.904 493.029 152.309 494.117 153.12C495.226 153.909 495.941 155.029 496.261 156.48L493.893 157.088C493.701 155.957 493.242 155.168 492.517 154.72C491.791 154.251 490.895 154.016 489.829 154.016C488.762 154.016 487.919 154.219 487.301 154.624C486.682 155.008 486.373 155.584 486.373 156.352C486.373 157.099 486.661 157.653 487.237 158.016C487.834 158.357 488.623 158.613 489.605 158.784L490.917 159.008C492.026 159.2 493.018 159.467 493.893 159.808C494.789 160.128 495.493 160.597 496.005 161.216C496.538 161.835 496.805 162.645 496.805 163.648C496.805 165.184 496.229 166.368 495.077 167.2C493.946 168.032 492.421 168.448 490.501 168.448ZM507.6 168.448C506.021 168.448 504.634 168.117 503.44 167.456C502.245 166.773 501.317 165.824 500.656 164.608C499.994 163.392 499.664 161.984 499.664 160.384V160C499.664 158.379 499.994 156.96 500.656 155.744C501.317 154.528 502.234 153.589 503.408 152.928C504.581 152.245 505.925 151.904 507.44 151.904C508.912 151.904 510.213 152.224 511.344 152.864C512.474 153.483 513.36 154.379 514 155.552C514.64 156.725 514.96 158.101 514.96 159.68V160.832H502.192C502.256 162.517 502.8 163.84 503.824 164.8C504.848 165.739 506.128 166.208 507.664 166.208C509.008 166.208 510.042 165.899 510.768 165.28C511.493 164.661 512.048 163.925 512.432 163.072L514.608 164.128C514.288 164.789 513.84 165.451 513.264 166.112C512.709 166.773 511.973 167.328 511.056 167.776C510.16 168.224 509.008 168.448 507.6 168.448ZM502.224 158.752H512.4C512.314 157.301 511.813 156.171 510.896 155.36C510 154.549 508.848 154.144 507.44 154.144C506.01 154.144 504.837 154.549 503.92 155.36C503.002 156.171 502.437 157.301 502.224 158.752ZM533.54 168.448C531.961 168.448 530.564 168.117 529.348 167.456C528.153 166.795 527.215 165.867 526.532 164.672C525.871 163.456 525.54 162.027 525.54 160.384V159.968C525.54 158.347 525.871 156.928 526.532 155.712C527.215 154.496 528.153 153.557 529.348 152.896C530.564 152.235 531.961 151.904 533.54 151.904C535.119 151.904 536.505 152.235 537.7 152.896C538.916 153.557 539.855 154.496 540.516 155.712C541.199 156.928 541.54 158.347 541.54 159.968V160.384C541.54 162.027 541.199 163.456 540.516 164.672C539.855 165.867 538.916 166.795 537.7 167.456C536.505 168.117 535.119 168.448 533.54 168.448ZM533.54 166.176C535.204 166.176 536.527 165.653 537.508 164.608C538.511 163.541 539.012 162.112 539.012 160.32V160.032C539.012 158.24 538.511 156.821 537.508 155.776C536.527 154.709 535.204 154.176 533.54 154.176C531.897 154.176 530.575 154.709 529.572 155.776C528.569 156.821 528.068 158.24 528.068 160.032V160.32C528.068 162.112 528.569 163.541 529.572 164.608C530.575 165.653 531.897 166.176 533.54 166.176ZM551.433 168.288C550.302 168.288 549.257 168.043 548.297 167.552C547.358 167.061 546.612 166.336 546.057 165.376C545.524 164.395 545.257 163.211 545.257 161.824V152.352H547.785V161.632C547.785 163.189 548.169 164.32 548.937 165.024C549.726 165.728 550.782 166.08 552.105 166.08C553.598 166.08 554.825 165.589 555.785 164.608C556.745 163.627 557.225 162.165 557.225 160.224V152.352H559.753V168H557.289V165.344H556.841C556.5 166.091 555.913 166.773 555.081 167.392C554.249 167.989 553.033 168.288 551.433 168.288ZM564.403 168V152.352H566.867V154.272H567.315C567.592 153.589 568.019 153.088 568.595 152.768C569.171 152.448 569.928 152.288 570.867 152.288H572.723V154.592H570.707C569.576 154.592 568.659 154.912 567.955 155.552C567.272 156.171 566.931 157.141 566.931 158.464V168H564.403ZM590.604 168.448C589.09 168.448 587.724 168.128 586.508 167.488C585.314 166.827 584.364 165.888 583.66 164.672C582.978 163.456 582.636 162.016 582.636 160.352V160C582.636 158.315 582.978 156.875 583.66 155.68C584.364 154.464 585.314 153.536 586.508 152.896C587.724 152.235 589.09 151.904 590.604 151.904C592.098 151.904 593.367 152.181 594.412 152.736C595.479 153.291 596.311 154.027 596.908 154.944C597.527 155.861 597.922 156.843 598.092 157.888L595.628 158.4C595.522 157.632 595.266 156.928 594.86 156.288C594.476 155.648 593.932 155.136 593.228 154.752C592.524 154.368 591.66 154.176 590.636 154.176C589.591 154.176 588.652 154.411 587.82 154.88C587.01 155.349 586.359 156.021 585.868 156.896C585.399 157.771 585.164 158.816 585.164 160.032V160.32C585.164 161.536 585.399 162.581 585.868 163.456C586.359 164.331 587.01 165.003 587.82 165.472C588.652 165.941 589.591 166.176 590.636 166.176C592.194 166.176 593.378 165.771 594.188 164.96C595.02 164.149 595.532 163.147 595.724 161.952L598.22 162.496C597.986 163.52 597.559 164.491 596.94 165.408C596.322 166.325 595.479 167.061 594.412 167.616C593.367 168.171 592.098 168.448 590.604 168.448ZM601.889 168V152.352H604.417V168H601.889ZM603.169 149.92C602.614 149.92 602.145 149.739 601.761 149.376C601.398 149.013 601.217 148.555 601.217 148C601.217 147.424 601.398 146.955 601.761 146.592C602.145 146.229 602.614 146.048 603.169 146.048C603.724 146.048 604.182 146.229 604.545 146.592C604.908 146.955 605.089 147.424 605.089 148C605.089 148.555 604.908 149.013 604.545 149.376C604.182 149.739 603.724 149.92 603.169 149.92ZM614.853 168C613.957 168 613.264 167.755 612.773 167.264C612.304 166.773 612.069 166.101 612.069 165.248V154.56H607.365V152.352H612.069V146.784H614.597V152.352H619.717V154.56H614.597V164.864C614.597 165.504 614.906 165.824 615.525 165.824H619.013V168H614.853ZM623.172 168V152.352H625.7V168H623.172ZM624.452 149.92C623.897 149.92 623.428 149.739 623.044 149.376C622.681 149.013 622.5 148.555 622.5 148C622.5 147.424 622.681 146.955 623.044 146.592C623.428 146.229 623.897 146.048 624.452 146.048C625.006 146.048 625.465 146.229 625.828 146.592C626.19 146.955 626.372 147.424 626.372 148C626.372 148.555 626.19 149.013 625.828 149.376C625.465 149.739 625.006 149.92 624.452 149.92ZM629.671 168V164.736L639.623 154.912V154.56H629.991V152.352H642.279V155.616L632.295 165.44V165.824H642.535V168H629.671ZM652.966 168.448C651.387 168.448 650.001 168.117 648.806 167.456C647.611 166.773 646.683 165.824 646.022 164.608C645.361 163.392 645.03 161.984 645.03 160.384V160C645.03 158.379 645.361 156.96 646.022 155.744C646.683 154.528 647.601 153.589 648.774 152.928C649.947 152.245 651.291 151.904 652.806 151.904C654.278 151.904 655.579 152.224 656.71 152.864C657.841 153.483 658.726 154.379 659.366 155.552C660.006 156.725 660.326 158.101 660.326 159.68V160.832H647.558C647.622 162.517 648.166 163.84 649.19 164.8C650.214 165.739 651.494 166.208 653.03 166.208C654.374 166.208 655.409 165.899 656.134 165.28C656.859 164.661 657.414 163.925 657.798 163.072L659.974 164.128C659.654 164.789 659.206 165.451 658.63 166.112C658.075 166.773 657.339 167.328 656.422 167.776C655.526 168.224 654.374 168.448 652.966 168.448ZM647.59 158.752H657.766C657.681 157.301 657.179 156.171 656.262 155.36C655.366 154.549 654.214 154.144 652.806 154.144C651.377 154.144 650.203 154.549 649.286 155.36C648.369 156.171 647.803 157.301 647.59 158.752ZM664.095 168V152.352H666.559V155.008H667.007C667.349 154.261 667.925 153.589 668.735 152.992C669.567 152.373 670.783 152.064 672.383 152.064C673.557 152.064 674.602 152.309 675.519 152.8C676.458 153.291 677.205 154.016 677.759 154.976C678.314 155.936 678.591 157.12 678.591 158.528V168H676.063V158.72C676.063 157.163 675.669 156.032 674.879 155.328C674.111 154.624 673.066 154.272 671.743 154.272C670.229 154.272 668.991 154.763 668.031 155.744C667.093 156.725 666.623 158.187 666.623 160.128V168H664.095ZM689.384 168.448C687.443 168.448 685.8 168 684.456 167.104C683.134 166.208 682.334 164.789 682.056 162.848L684.456 162.304C684.627 163.328 684.947 164.139 685.416 164.736C685.886 165.312 686.462 165.728 687.144 165.984C687.848 166.219 688.595 166.336 689.384 166.336C690.558 166.336 691.486 166.101 692.168 165.632C692.851 165.163 693.192 164.533 693.192 163.744C693.192 162.933 692.862 162.368 692.2 162.048C691.56 161.707 690.675 161.429 689.544 161.216L688.232 160.992C687.23 160.821 686.312 160.555 685.48 160.192C684.648 159.829 683.987 159.339 683.496 158.72C683.006 158.101 682.76 157.323 682.76 156.384C682.76 154.976 683.304 153.877 684.392 153.088C685.48 152.299 686.92 151.904 688.712 151.904C690.483 151.904 691.912 152.309 693 153.12C694.11 153.909 694.824 155.029 695.144 156.48L692.776 157.088C692.584 155.957 692.126 155.168 691.4 154.72C690.675 154.251 689.779 154.016 688.712 154.016C687.646 154.016 686.803 154.219 686.184 154.624C685.566 155.008 685.256 155.584 685.256 156.352C685.256 157.099 685.544 157.653 686.12 158.016C686.718 158.357 687.507 158.613 688.488 158.784L689.8 159.008C690.91 159.2 691.902 159.467 692.776 159.808C693.672 160.128 694.376 160.597 694.888 161.216C695.422 161.835 695.688 162.645 695.688 163.648C695.688 165.184 695.112 166.368 693.96 167.2C692.83 168.032 691.304 168.448 689.384 168.448ZM699.315 168V145.6H701.843V154.848H702.291C702.505 154.379 702.825 153.941 703.251 153.536C703.699 153.109 704.265 152.757 704.947 152.48C705.651 152.203 706.537 152.064 707.603 152.064C708.777 152.064 709.822 152.32 710.739 152.832C711.678 153.323 712.425 154.048 712.979 155.008C713.534 155.947 713.811 157.12 713.811 158.528V168H711.283V158.72C711.283 157.163 710.889 156.032 710.099 155.328C709.331 154.624 708.286 154.272 706.963 154.272C705.449 154.272 704.211 154.763 703.251 155.744C702.313 156.725 701.843 158.187 701.843 160.128V168H699.315ZM718.3 168V152.352H720.828V168H718.3ZM719.58 149.92C719.026 149.92 718.556 149.739 718.172 149.376C717.81 149.013 717.628 148.555 717.628 148C717.628 147.424 717.81 146.955 718.172 146.592C718.556 146.229 719.026 146.048 719.58 146.048C720.135 146.048 720.594 146.229 720.956 146.592C721.319 146.955 721.5 147.424 721.5 148C721.5 148.555 721.319 149.013 720.956 149.376C720.594 149.739 720.135 149.92 719.58 149.92ZM725.504 174.4V152.352H727.968V154.944H728.416C728.821 154.155 729.472 153.451 730.368 152.832C731.285 152.213 732.555 151.904 734.176 151.904C735.52 151.904 736.747 152.235 737.856 152.896C738.987 153.536 739.883 154.453 740.544 155.648C741.227 156.843 741.568 158.283 741.568 159.968V160.384C741.568 162.048 741.237 163.488 740.576 164.704C739.915 165.92 739.019 166.848 737.888 167.488C736.779 168.128 735.541 168.448 734.176 168.448C733.088 168.448 732.16 168.299 731.392 168C730.645 167.723 730.037 167.36 729.568 166.912C729.099 166.464 728.736 166.005 728.48 165.536H728.032V174.4H725.504ZM733.504 166.208C735.125 166.208 736.437 165.696 737.44 164.672C738.464 163.627 738.976 162.176 738.976 160.32V160.032C738.976 158.176 738.464 156.736 737.44 155.712C736.437 154.667 735.125 154.144 733.504 154.144C731.904 154.144 730.581 154.667 729.536 155.712C728.512 156.736 728 158.176 728 160.032V160.32C728 162.176 728.512 163.627 729.536 164.672C730.581 165.696 731.904 166.208 733.504 166.208ZM753.037 168V152.352H755.565V168H753.037ZM754.317 149.92C753.762 149.92 753.293 149.739 752.909 149.376C752.546 149.013 752.365 148.555 752.365 148C752.365 147.424 752.546 146.955 752.909 146.592C753.293 146.229 753.762 146.048 754.317 146.048C754.871 146.048 755.33 146.229 755.693 146.592C756.055 146.955 756.237 147.424 756.237 148C756.237 148.555 756.055 149.013 755.693 149.376C755.33 149.739 754.871 149.92 754.317 149.92ZM766.544 168.448C764.603 168.448 762.96 168 761.616 167.104C760.294 166.208 759.494 164.789 759.216 162.848L761.616 162.304C761.787 163.328 762.107 164.139 762.576 164.736C763.046 165.312 763.622 165.728 764.304 165.984C765.008 166.219 765.755 166.336 766.544 166.336C767.718 166.336 768.646 166.101 769.328 165.632C770.011 165.163 770.352 164.533 770.352 163.744C770.352 162.933 770.022 162.368 769.36 162.048C768.72 161.707 767.835 161.429 766.704 161.216L765.392 160.992C764.39 160.821 763.472 160.555 762.64 160.192C761.808 159.829 761.147 159.339 760.656 158.72C760.166 158.101 759.92 157.323 759.92 156.384C759.92 154.976 760.464 153.877 761.552 153.088C762.64 152.299 764.08 151.904 765.872 151.904C767.643 151.904 769.072 152.309 770.16 153.12C771.27 153.909 771.984 155.029 772.304 156.48L769.936 157.088C769.744 155.957 769.286 155.168 768.56 154.72C767.835 154.251 766.939 154.016 765.872 154.016C764.806 154.016 763.963 154.219 763.344 154.624C762.726 155.008 762.416 155.584 762.416 156.352C762.416 157.099 762.704 157.653 763.28 158.016C763.878 158.357 764.667 158.613 765.648 158.784L766.96 159.008C768.07 159.2 769.062 159.467 769.936 159.808C770.832 160.128 771.536 160.597 772.048 161.216C772.582 161.835 772.848 162.645 772.848 163.648C772.848 165.184 772.272 166.368 771.12 167.2C769.99 168.032 768.464 168.448 766.544 168.448ZM80.376 215V199.352H82.904V215H80.376ZM81.656 196.92C81.1013 196.92 80.632 196.739 80.248 196.376C79.8853 196.013 79.704 195.555 79.704 195C79.704 194.424 79.8853 193.955 80.248 193.592C80.632 193.229 81.1013 193.048 81.656 193.048C82.2107 193.048 82.6693 193.229 83.032 193.592C83.3947 193.955 83.576 194.424 83.576 195C83.576 195.555 83.3947 196.013 83.032 196.376C82.6693 196.739 82.2107 196.92 81.656 196.92ZM87.5798 215V199.352H90.0438V202.008H90.4918C90.8331 201.261 91.4091 200.589 92.2198 199.992C93.0518 199.373 94.2678 199.064 95.8678 199.064C97.0411 199.064 98.0864 199.309 99.0038 199.8C99.9424 200.291 100.689 201.016 101.244 201.976C101.798 202.936 102.076 204.12 102.076 205.528V215H99.5478V205.72C99.5478 204.163 99.1531 203.032 98.3638 202.328C97.5958 201.624 96.5504 201.272 95.2278 201.272C93.7131 201.272 92.4758 201.763 91.5158 202.744C90.5771 203.725 90.1078 205.187 90.1078 207.128V215H87.5798ZM114.144 215V192.6H116.672V201.848H117.12C117.333 201.379 117.653 200.941 118.08 200.536C118.528 200.109 119.093 199.757 119.776 199.48C120.48 199.203 121.365 199.064 122.432 199.064C123.605 199.064 124.65 199.32 125.568 199.832C126.506 200.323 127.253 201.048 127.808 202.008C128.362 202.947 128.64 204.12 128.64 205.528V215H126.112V205.72C126.112 204.163 125.717 203.032 124.928 202.328C124.16 201.624 123.114 201.272 121.792 201.272C120.277 201.272 119.04 201.763 118.08 202.744C117.141 203.725 116.672 205.187 116.672 207.128V215H114.144ZM140.297 215.448C138.718 215.448 137.331 215.117 136.137 214.456C134.942 213.773 134.014 212.824 133.353 211.608C132.691 210.392 132.361 208.984 132.361 207.384V207C132.361 205.379 132.691 203.96 133.353 202.744C134.014 201.528 134.931 200.589 136.105 199.928C137.278 199.245 138.622 198.904 140.137 198.904C141.609 198.904 142.91 199.224 144.041 199.864C145.171 200.483 146.057 201.379 146.697 202.552C147.337 203.725 147.657 205.101 147.657 206.68V207.832H134.889C134.953 209.517 135.497 210.84 136.521 211.8C137.545 212.739 138.825 213.208 140.361 213.208C141.705 213.208 142.739 212.899 143.465 212.28C144.19 211.661 144.745 210.925 145.129 210.072L147.305 211.128C146.985 211.789 146.537 212.451 145.961 213.112C145.406 213.773 144.67 214.328 143.753 214.776C142.857 215.224 141.705 215.448 140.297 215.448ZM134.921 205.752H145.097C145.011 204.301 144.51 203.171 143.593 202.36C142.697 201.549 141.545 201.144 140.137 201.144C138.707 201.144 137.534 201.549 136.617 202.36C135.699 203.171 135.134 204.301 134.921 205.752ZM156.226 215.448C155.138 215.448 154.146 215.256 153.25 214.872C152.354 214.488 151.65 213.933 151.138 213.208C150.626 212.483 150.37 211.597 150.37 210.552C150.37 209.485 150.626 208.611 151.138 207.928C151.65 207.224 152.354 206.701 153.25 206.36C154.146 205.997 155.149 205.816 156.258 205.816H161.538V204.664C161.538 203.555 161.207 202.68 160.546 202.04C159.906 201.4 158.946 201.08 157.666 201.08C156.407 201.08 155.426 201.389 154.722 202.008C154.018 202.605 153.538 203.416 153.282 204.44L150.914 203.672C151.17 202.797 151.575 202.008 152.13 201.304C152.685 200.579 153.421 200.003 154.338 199.576C155.277 199.128 156.397 198.904 157.698 198.904C159.703 198.904 161.261 199.427 162.37 200.472C163.479 201.496 164.034 202.947 164.034 204.824V211.896C164.034 212.536 164.333 212.856 164.93 212.856H166.37V215H164.162C163.458 215 162.893 214.808 162.466 214.424C162.039 214.019 161.826 213.485 161.826 212.824V212.664H161.442C161.207 213.069 160.887 213.496 160.482 213.944C160.098 214.371 159.565 214.723 158.882 215C158.199 215.299 157.314 215.448 156.226 215.448ZM156.514 213.272C158.007 213.272 159.213 212.835 160.13 211.96C161.069 211.064 161.538 209.816 161.538 208.216V207.864H156.354C155.351 207.864 154.519 208.088 153.858 208.536C153.218 208.963 152.898 209.613 152.898 210.488C152.898 211.363 153.229 212.045 153.89 212.536C154.573 213.027 155.447 213.272 156.514 213.272ZM172.285 215L166.685 199.352H169.373L174.077 213.112H174.525L179.229 199.352H181.917L176.317 215H172.285ZM191.439 215.448C189.86 215.448 188.474 215.117 187.279 214.456C186.084 213.773 185.156 212.824 184.495 211.608C183.834 210.392 183.503 208.984 183.503 207.384V207C183.503 205.379 183.834 203.96 184.495 202.744C185.156 201.528 186.074 200.589 187.247 199.928C188.42 199.245 189.764 198.904 191.279 198.904C192.751 198.904 194.052 199.224 195.183 199.864C196.314 200.483 197.199 201.379 197.839 202.552C198.479 203.725 198.799 205.101 198.799 206.68V207.832H186.031C186.095 209.517 186.639 210.84 187.663 211.8C188.687 212.739 189.967 213.208 191.503 213.208C192.847 213.208 193.882 212.899 194.607 212.28C195.332 211.661 195.887 210.925 196.271 210.072L198.447 211.128C198.127 211.789 197.679 212.451 197.103 213.112C196.548 213.773 195.812 214.328 194.895 214.776C193.999 215.224 192.847 215.448 191.439 215.448ZM186.063 205.752H196.239C196.154 204.301 195.652 203.171 194.735 202.36C193.839 201.549 192.687 201.144 191.279 201.144C189.85 201.144 188.676 201.549 187.759 202.36C186.842 203.171 186.276 204.301 186.063 205.752ZM202.569 215V199.352H205.033V202.008H205.481C205.822 201.261 206.398 200.589 207.209 199.992C208.041 199.373 209.257 199.064 210.857 199.064C212.03 199.064 213.075 199.309 213.993 199.8C214.931 200.291 215.678 201.016 216.233 201.976C216.787 202.936 217.065 204.12 217.065 205.528V215H214.537V205.72C214.537 204.163 214.142 203.032 213.353 202.328C212.585 201.624 211.539 201.272 210.217 201.272C208.702 201.272 207.465 201.763 206.505 202.744C205.566 203.725 205.097 205.187 205.097 207.128V215H202.569ZM222.93 215.448C222.311 215.448 221.788 215.245 221.362 214.84C220.956 214.435 220.754 213.912 220.754 213.272C220.754 212.632 220.956 212.109 221.362 211.704C221.788 211.299 222.311 211.096 222.93 211.096C223.57 211.096 224.092 211.299 224.498 211.704C224.903 212.109 225.106 212.632 225.106 213.272C225.106 213.912 224.903 214.435 224.498 214.84C224.092 215.245 223.57 215.448 222.93 215.448ZM233.261 215L240.173 192.6H244.909L251.821 215H249.037L247.309 209.336H237.773L236.045 215H233.261ZM238.445 206.904H246.605L242.765 194.232H242.317L238.445 206.904ZM254.634 215V199.352H257.098V202.008H257.546C257.887 201.261 258.463 200.589 259.274 199.992C260.106 199.373 261.322 199.064 262.922 199.064C264.095 199.064 265.14 199.309 266.058 199.8C266.996 200.291 267.743 201.016 268.298 201.976C268.852 202.936 269.13 204.12 269.13 205.528V215H266.602V205.72C266.602 204.163 266.207 203.032 265.418 202.328C264.65 201.624 263.604 201.272 262.282 201.272C260.767 201.272 259.53 201.763 258.57 202.744C257.631 203.725 257.162 205.187 257.162 207.128V215H254.634ZM280.242 215.448C278.898 215.448 277.661 215.128 276.53 214.488C275.4 213.848 274.504 212.92 273.842 211.704C273.181 210.488 272.85 209.048 272.85 207.384V206.968C272.85 205.304 273.181 203.875 273.842 202.68C274.504 201.464 275.389 200.536 276.498 199.896C277.629 199.235 278.877 198.904 280.242 198.904C281.33 198.904 282.248 199.053 282.994 199.352C283.762 199.629 284.381 199.992 284.85 200.44C285.32 200.867 285.682 201.325 285.938 201.816H286.386V192.6H288.914V215H286.45V212.408H286.002C285.576 213.197 284.914 213.901 284.018 214.52C283.122 215.139 281.864 215.448 280.242 215.448ZM280.914 213.208C282.536 213.208 283.848 212.696 284.85 211.672C285.874 210.627 286.386 209.176 286.386 207.32V207.032C286.386 205.176 285.874 203.736 284.85 202.712C283.848 201.667 282.536 201.144 280.914 201.144C279.314 201.144 277.992 201.667 276.946 202.712C275.922 203.736 275.41 205.176 275.41 207.032V207.32C275.41 209.176 275.922 210.627 276.946 211.672C277.992 212.696 279.314 213.208 280.914 213.208ZM304.223 215V201.56H299.423V199.352H304.223V195.352C304.223 194.499 304.458 193.827 304.927 193.336C305.418 192.845 306.111 192.6 307.007 192.6H310.943V194.776H307.711C307.071 194.776 306.751 195.096 306.751 195.736V199.352H311.679V201.56H306.751V215H304.223ZM314.667 215V199.352H317.131V201.272H317.579C317.857 200.589 318.283 200.088 318.859 199.768C319.435 199.448 320.193 199.288 321.131 199.288H322.987V201.592H320.971C319.841 201.592 318.923 201.912 318.219 202.552C317.537 203.171 317.195 204.141 317.195 205.464V215H314.667ZM332.759 215.448C331.181 215.448 329.783 215.117 328.567 214.456C327.373 213.795 326.434 212.867 325.751 211.672C325.09 210.456 324.759 209.027 324.759 207.384V206.968C324.759 205.347 325.09 203.928 325.751 202.712C326.434 201.496 327.373 200.557 328.567 199.896C329.783 199.235 331.181 198.904 332.759 198.904C334.338 198.904 335.725 199.235 336.919 199.896C338.135 200.557 339.074 201.496 339.735 202.712C340.418 203.928 340.759 205.347 340.759 206.968V207.384C340.759 209.027 340.418 210.456 339.735 211.672C339.074 212.867 338.135 213.795 336.919 214.456C335.725 215.117 334.338 215.448 332.759 215.448ZM332.759 213.176C334.423 213.176 335.746 212.653 336.727 211.608C337.73 210.541 338.231 209.112 338.231 207.32V207.032C338.231 205.24 337.73 203.821 336.727 202.776C335.746 201.709 334.423 201.176 332.759 201.176C331.117 201.176 329.794 201.709 328.791 202.776C327.789 203.821 327.287 205.24 327.287 207.032V207.32C327.287 209.112 327.789 210.541 328.791 211.608C329.794 212.653 331.117 213.176 332.759 213.176ZM344.669 215V199.352H347.133V201.304H347.581C347.879 200.749 348.37 200.237 349.053 199.768C349.735 199.299 350.695 199.064 351.933 199.064C353.149 199.064 354.13 199.331 354.877 199.864C355.645 200.397 356.199 201.048 356.541 201.816H356.989C357.351 201.048 357.895 200.397 358.621 199.864C359.367 199.331 360.402 199.064 361.725 199.064C362.77 199.064 363.687 199.277 364.477 199.704C365.266 200.131 365.885 200.749 366.333 201.56C366.802 202.349 367.037 203.299 367.037 204.408V215H364.509V204.632C364.509 203.587 364.199 202.765 363.581 202.168C362.983 201.549 362.141 201.24 361.053 201.24C359.901 201.24 358.951 201.613 358.205 202.36C357.479 203.107 357.117 204.184 357.117 205.592V215H354.589V204.632C354.589 203.587 354.279 202.765 353.661 202.168C353.063 201.549 352.221 201.24 351.133 201.24C349.981 201.24 349.031 201.613 348.285 202.36C347.559 203.107 347.197 204.184 347.197 205.592V215H344.669ZM384.899 215C384.003 215 383.309 214.755 382.819 214.264C382.349 213.773 382.115 213.101 382.115 212.248V201.56H377.411V199.352H382.115V193.784H384.643V199.352H389.763V201.56H384.643V211.864C384.643 212.504 384.952 212.824 385.571 212.824H389.059V215H384.899ZM393.217 215V192.6H395.745V201.848H396.193C396.407 201.379 396.727 200.941 397.153 200.536C397.601 200.109 398.167 199.757 398.849 199.48C399.553 199.203 400.439 199.064 401.505 199.064C402.679 199.064 403.724 199.32 404.641 199.832C405.58 200.323 406.327 201.048 406.881 202.008C407.436 202.947 407.713 204.12 407.713 205.528V215H405.185V205.72C405.185 204.163 404.791 203.032 404.001 202.328C403.233 201.624 402.188 201.272 400.865 201.272C399.351 201.272 398.113 201.763 397.153 202.744C396.215 203.725 395.745 205.187 395.745 207.128V215H393.217ZM419.37 215.448C417.792 215.448 416.405 215.117 415.21 214.456C414.016 213.773 413.088 212.824 412.426 211.608C411.765 210.392 411.434 208.984 411.434 207.384V207C411.434 205.379 411.765 203.96 412.426 202.744C413.088 201.528 414.005 200.589 415.178 199.928C416.352 199.245 417.696 198.904 419.21 198.904C420.682 198.904 421.984 199.224 423.114 199.864C424.245 200.483 425.13 201.379 425.77 202.552C426.41 203.725 426.73 205.101 426.73 206.68V207.832H413.962C414.026 209.517 414.57 210.84 415.594 211.8C416.618 212.739 417.898 213.208 419.434 213.208C420.778 213.208 421.813 212.899 422.538 212.28C423.264 211.661 423.818 210.925 424.202 210.072L426.378 211.128C426.058 211.789 425.61 212.451 425.034 213.112C424.48 213.773 423.744 214.328 422.826 214.776C421.93 215.224 420.778 215.448 419.37 215.448ZM413.994 205.752H424.17C424.085 204.301 423.584 203.171 422.666 202.36C421.77 201.549 420.618 201.144 419.21 201.144C417.781 201.144 416.608 201.549 415.69 202.36C414.773 203.171 414.208 204.301 413.994 205.752ZM430.5 215V199.352H432.964V201.272H433.412C433.689 200.589 434.116 200.088 434.692 199.768C435.268 199.448 436.025 199.288 436.964 199.288H438.82V201.592H436.804C435.673 201.592 434.756 201.912 434.052 202.552C433.369 203.171 433.028 204.141 433.028 205.464V215H430.5ZM448.528 215.448C446.949 215.448 445.562 215.117 444.368 214.456C443.173 213.773 442.245 212.824 441.584 211.608C440.922 210.392 440.592 208.984 440.592 207.384V207C440.592 205.379 440.922 203.96 441.584 202.744C442.245 201.528 443.162 200.589 444.336 199.928C445.509 199.245 446.853 198.904 448.368 198.904C449.84 198.904 451.141 199.224 452.272 199.864C453.402 200.483 454.288 201.379 454.928 202.552C455.568 203.725 455.888 205.101 455.888 206.68V207.832H443.12C443.184 209.517 443.728 210.84 444.752 211.8C445.776 212.739 447.056 213.208 448.592 213.208C449.936 213.208 450.97 212.899 451.696 212.28C452.421 211.661 452.976 210.925 453.36 210.072L455.536 211.128C455.216 211.789 454.768 212.451 454.192 213.112C453.637 213.773 452.901 214.328 451.984 214.776C451.088 215.224 449.936 215.448 448.528 215.448ZM443.152 205.752H453.328C453.242 204.301 452.741 203.171 451.824 202.36C450.928 201.549 449.776 201.144 448.368 201.144C446.938 201.144 445.765 201.549 444.848 202.36C443.93 203.171 443.365 204.301 443.152 205.752ZM469.412 215L466.276 199.352H468.836L471.428 213.304H471.876L475.3 199.352H479.492L482.916 213.304H483.364L485.956 199.352H488.516L485.38 215H481.06L477.604 201.048H477.188L473.732 215H469.412ZM499.077 215.448C497.498 215.448 496.111 215.117 494.917 214.456C493.722 213.773 492.794 212.824 492.133 211.608C491.471 210.392 491.141 208.984 491.141 207.384V207C491.141 205.379 491.471 203.96 492.133 202.744C492.794 201.528 493.711 200.589 494.885 199.928C496.058 199.245 497.402 198.904 498.917 198.904C500.389 198.904 501.69 199.224 502.821 199.864C503.951 200.483 504.837 201.379 505.477 202.552C506.117 203.725 506.437 205.101 506.437 206.68V207.832H493.669C493.733 209.517 494.277 210.84 495.301 211.8C496.325 212.739 497.605 213.208 499.141 213.208C500.485 213.208 501.519 212.899 502.245 212.28C502.97 211.661 503.525 210.925 503.909 210.072L506.085 211.128C505.765 211.789 505.317 212.451 504.741 213.112C504.186 213.773 503.45 214.328 502.533 214.776C501.637 215.224 500.485 215.448 499.077 215.448ZM493.701 205.752H503.877C503.791 204.301 503.29 203.171 502.373 202.36C501.477 201.549 500.325 201.144 498.917 201.144C497.487 201.144 496.314 201.549 495.397 202.36C494.479 203.171 493.914 204.301 493.701 205.752ZM524.953 215.448C523.374 215.448 521.987 215.117 520.793 214.456C519.598 213.773 518.67 212.824 518.009 211.608C517.347 210.392 517.017 208.984 517.017 207.384V207C517.017 205.379 517.347 203.96 518.009 202.744C518.67 201.528 519.587 200.589 520.761 199.928C521.934 199.245 523.278 198.904 524.793 198.904C526.265 198.904 527.566 199.224 528.697 199.864C529.827 200.483 530.713 201.379 531.353 202.552C531.993 203.725 532.313 205.101 532.313 206.68V207.832H519.545C519.609 209.517 520.153 210.84 521.177 211.8C522.201 212.739 523.481 213.208 525.017 213.208C526.361 213.208 527.395 212.899 528.121 212.28C528.846 211.661 529.401 210.925 529.785 210.072L531.961 211.128C531.641 211.789 531.193 212.451 530.617 213.112C530.062 213.773 529.326 214.328 528.409 214.776C527.513 215.224 526.361 215.448 524.953 215.448ZM519.577 205.752H529.753C529.667 204.301 529.166 203.171 528.249 202.36C527.353 201.549 526.201 201.144 524.793 201.144C523.363 201.144 522.19 201.549 521.273 202.36C520.355 203.171 519.79 204.301 519.577 205.752ZM540.882 215.448C539.794 215.448 538.802 215.256 537.906 214.872C537.01 214.488 536.306 213.933 535.794 213.208C535.282 212.483 535.026 211.597 535.026 210.552C535.026 209.485 535.282 208.611 535.794 207.928C536.306 207.224 537.01 206.701 537.906 206.36C538.802 205.997 539.805 205.816 540.914 205.816H546.194V204.664C546.194 203.555 545.864 202.68 545.202 202.04C544.562 201.4 543.602 201.08 542.322 201.08C541.064 201.08 540.082 201.389 539.378 202.008C538.674 202.605 538.194 203.416 537.938 204.44L535.57 203.672C535.826 202.797 536.232 202.008 536.786 201.304C537.341 200.579 538.077 200.003 538.994 199.576C539.933 199.128 541.053 198.904 542.354 198.904C544.36 198.904 545.917 199.427 547.026 200.472C548.136 201.496 548.69 202.947 548.69 204.824V211.896C548.69 212.536 548.989 212.856 549.586 212.856H551.026V215H548.818C548.114 215 547.549 214.808 547.122 214.424C546.696 214.019 546.482 213.485 546.482 212.824V212.664H546.098C545.864 213.069 545.544 213.496 545.138 213.944C544.754 214.371 544.221 214.723 543.538 215C542.856 215.299 541.97 215.448 540.882 215.448ZM541.17 213.272C542.664 213.272 543.869 212.835 544.786 211.96C545.725 211.064 546.194 209.816 546.194 208.216V207.864H541.01C540.008 207.864 539.176 208.088 538.514 208.536C537.874 208.963 537.554 209.613 537.554 210.488C537.554 211.363 537.885 212.045 538.546 212.536C539.229 213.027 540.104 213.272 541.17 213.272ZM552.643 207.256V206.808C552.643 205.165 552.974 203.757 553.635 202.584C554.296 201.411 555.192 200.504 556.323 199.864C557.454 199.224 558.691 198.904 560.035 198.904C561.678 198.904 562.936 199.224 563.811 199.864C564.707 200.483 565.368 201.176 565.795 201.944H566.243V199.352H568.643V218.648C568.643 219.501 568.408 220.173 567.939 220.664C567.47 221.155 566.787 221.4 565.891 221.4H555.267V219.16H565.219C565.859 219.16 566.179 218.84 566.179 218.2V212.248H565.731C565.475 212.717 565.112 213.176 564.643 213.624C564.174 214.072 563.566 214.445 562.819 214.744C562.072 215.021 561.144 215.16 560.035 215.16C558.691 215.16 557.454 214.84 556.323 214.2C555.192 213.56 554.296 212.653 553.635 211.48C552.974 210.285 552.643 208.877 552.643 207.256ZM560.707 212.92C562.328 212.92 563.64 212.408 564.643 211.384C565.667 210.36 566.179 208.952 566.179 207.16V206.904C566.179 205.091 565.667 203.683 564.643 202.68C563.64 201.656 562.328 201.144 560.707 201.144C559.107 201.144 557.784 201.656 556.739 202.68C555.715 203.683 555.203 205.091 555.203 206.904V207.16C555.203 208.952 555.715 210.36 556.739 211.384C557.784 212.408 559.107 212.92 560.707 212.92ZM580.47 215.448C578.892 215.448 577.505 215.117 576.31 214.456C575.116 213.773 574.188 212.824 573.526 211.608C572.865 210.392 572.534 208.984 572.534 207.384V207C572.534 205.379 572.865 203.96 573.526 202.744C574.188 201.528 575.105 200.589 576.278 199.928C577.452 199.245 578.796 198.904 580.31 198.904C581.782 198.904 583.084 199.224 584.214 199.864C585.345 200.483 586.23 201.379 586.87 202.552C587.51 203.725 587.83 205.101 587.83 206.68V207.832H575.062C575.126 209.517 575.67 210.84 576.694 211.8C577.718 212.739 578.998 213.208 580.534 213.208C581.878 213.208 582.913 212.899 583.638 212.28C584.364 211.661 584.918 210.925 585.302 210.072L587.478 211.128C587.158 211.789 586.71 212.451 586.134 213.112C585.58 213.773 584.844 214.328 583.926 214.776C583.03 215.224 581.878 215.448 580.47 215.448ZM575.094 205.752H585.27C585.185 204.301 584.684 203.171 583.766 202.36C582.87 201.549 581.718 201.144 580.31 201.144C578.881 201.144 577.708 201.549 576.79 202.36C575.873 203.171 575.308 204.301 575.094 205.752ZM591.6 215V199.352H594.064V201.272H594.512C594.789 200.589 595.216 200.088 595.792 199.768C596.368 199.448 597.125 199.288 598.064 199.288H599.92V201.592H597.904C596.773 201.592 595.856 201.912 595.152 202.552C594.469 203.171 594.128 204.141 594.128 205.464V215H591.6ZM603.022 215V192.6H605.55V215H603.022ZM612.114 221.4V219.16H621.074C621.693 219.16 622.002 218.84 622.002 218.2V212.504H621.554C621.341 212.952 621.01 213.4 620.562 213.848C620.135 214.275 619.57 214.627 618.866 214.904C618.162 215.16 617.277 215.288 616.21 215.288C615.079 215.288 614.034 215.043 613.074 214.552C612.135 214.061 611.389 213.336 610.834 212.376C610.301 211.416 610.034 210.243 610.034 208.856V199.352H612.562V208.664C612.562 210.2 612.946 211.32 613.714 212.024C614.503 212.728 615.559 213.08 616.882 213.08C618.375 213.08 619.602 212.589 620.562 211.608C621.522 210.627 622.002 209.165 622.002 207.224V199.352H624.53V218.648C624.53 219.501 624.285 220.173 623.794 220.664C623.325 221.155 622.631 221.4 621.714 221.4H612.114ZM641.559 215.448C640.471 215.448 639.479 215.256 638.583 214.872C637.687 214.488 636.983 213.933 636.471 213.208C635.959 212.483 635.703 211.597 635.703 210.552C635.703 209.485 635.959 208.611 636.471 207.928C636.983 207.224 637.687 206.701 638.583 206.36C639.479 205.997 640.481 205.816 641.591 205.816H646.871V204.664C646.871 203.555 646.54 202.68 645.879 202.04C645.239 201.4 644.279 201.08 642.999 201.08C641.74 201.08 640.759 201.389 640.055 202.008C639.351 202.605 638.871 203.416 638.615 204.44L636.247 203.672C636.503 202.797 636.908 202.008 637.463 201.304C638.017 200.579 638.753 200.003 639.671 199.576C640.609 199.128 641.729 198.904 643.031 198.904C645.036 198.904 646.593 199.427 647.703 200.472C648.812 201.496 649.367 202.947 649.367 204.824V211.896C649.367 212.536 649.665 212.856 650.263 212.856H651.703V215H649.495C648.791 215 648.225 214.808 647.799 214.424C647.372 214.019 647.159 213.485 647.159 212.824V212.664H646.775C646.54 213.069 646.22 213.496 645.815 213.944C645.431 214.371 644.897 214.723 644.215 215C643.532 215.299 642.647 215.448 641.559 215.448ZM641.847 213.272C643.34 213.272 644.545 212.835 645.463 211.96C646.401 211.064 646.871 209.816 646.871 208.216V207.864H641.687C640.684 207.864 639.852 208.088 639.191 208.536C638.551 208.963 638.231 209.613 638.231 210.488C638.231 211.363 638.561 212.045 639.223 212.536C639.905 213.027 640.78 213.272 641.847 213.272ZM656.388 215L653.252 199.352H655.812L658.404 213.304H658.852L662.276 199.352H666.468L669.892 213.304H670.34L672.932 199.352H675.492L672.356 215H668.036L664.58 201.048H664.164L660.708 215H656.388ZM683.747 215.448C682.659 215.448 681.667 215.256 680.771 214.872C679.875 214.488 679.171 213.933 678.659 213.208C678.147 212.483 677.891 211.597 677.891 210.552C677.891 209.485 678.147 208.611 678.659 207.928C679.171 207.224 679.875 206.701 680.771 206.36C681.667 205.997 682.67 205.816 683.779 205.816H689.059V204.664C689.059 203.555 688.729 202.68 688.067 202.04C687.427 201.4 686.467 201.08 685.187 201.08C683.929 201.08 682.947 201.389 682.243 202.008C681.539 202.605 681.059 203.416 680.803 204.44L678.435 203.672C678.691 202.797 679.097 202.008 679.651 201.304C680.206 200.579 680.942 200.003 681.859 199.576C682.798 199.128 683.918 198.904 685.219 198.904C687.225 198.904 688.782 199.427 689.891 200.472C691.001 201.496 691.555 202.947 691.555 204.824V211.896C691.555 212.536 691.854 212.856 692.451 212.856H693.891V215H691.683C690.979 215 690.414 214.808 689.987 214.424C689.561 214.019 689.347 213.485 689.347 212.824V212.664H688.963C688.729 213.069 688.409 213.496 688.003 213.944C687.619 214.371 687.086 214.723 686.403 215C685.721 215.299 684.835 215.448 683.747 215.448ZM684.035 213.272C685.529 213.272 686.734 212.835 687.651 211.96C688.59 211.064 689.059 209.816 689.059 208.216V207.864H683.875C682.873 207.864 682.041 208.088 681.379 208.536C680.739 208.963 680.419 209.613 680.419 210.488C680.419 211.363 680.75 212.045 681.411 212.536C682.094 213.027 682.969 213.272 684.035 213.272ZM696.713 215V199.352H699.241V215H696.713ZM697.993 196.92C697.439 196.92 696.969 196.739 696.585 196.376C696.223 196.013 696.041 195.555 696.041 195C696.041 194.424 696.223 193.955 696.585 193.592C696.969 193.229 697.439 193.048 697.993 193.048C698.548 193.048 699.007 193.229 699.369 193.592C699.732 193.955 699.913 194.424 699.913 195C699.913 195.555 699.732 196.013 699.369 196.376C699.007 196.739 698.548 196.92 697.993 196.92ZM709.677 215C708.781 215 708.088 214.755 707.597 214.264C707.128 213.773 706.893 213.101 706.893 212.248V201.56H702.189V199.352H706.893V193.784H709.421V199.352H714.541V201.56H709.421V211.864C709.421 212.504 709.731 212.824 710.349 212.824H713.837V215H709.677ZM731.335 215C730.439 215 729.745 214.755 729.255 214.264C728.785 213.773 728.551 213.101 728.551 212.248V201.56H723.847V199.352H728.551V193.784H731.079V199.352H736.199V201.56H731.079V211.864C731.079 212.504 731.388 212.824 732.007 212.824H735.495V215H731.335ZM739.654 215V192.6H742.182V201.848H742.63C742.843 201.379 743.163 200.941 743.59 200.536C744.038 200.109 744.603 199.757 745.286 199.48C745.99 199.203 746.875 199.064 747.942 199.064C749.115 199.064 750.16 199.32 751.078 199.832C752.016 200.323 752.763 201.048 753.318 202.008C753.872 202.947 754.15 204.12 754.15 205.528V215H751.622V205.72C751.622 204.163 751.227 203.032 750.438 202.328C749.67 201.624 748.624 201.272 747.302 201.272C745.787 201.272 744.55 201.763 743.59 202.744C742.651 203.725 742.182 205.187 742.182 207.128V215H739.654ZM765.807 215.448C764.228 215.448 762.841 215.117 761.647 214.456C760.452 213.773 759.524 212.824 758.863 211.608C758.201 210.392 757.871 208.984 757.871 207.384V207C757.871 205.379 758.201 203.96 758.863 202.744C759.524 201.528 760.441 200.589 761.615 199.928C762.788 199.245 764.132 198.904 765.647 198.904C767.119 198.904 768.42 199.224 769.551 199.864C770.681 200.483 771.567 201.379 772.207 202.552C772.847 203.725 773.167 205.101 773.167 206.68V207.832H760.399C760.463 209.517 761.007 210.84 762.031 211.8C763.055 212.739 764.335 213.208 765.871 213.208C767.215 213.208 768.249 212.899 768.975 212.28C769.7 211.661 770.255 210.925 770.639 210.072L772.815 211.128C772.495 211.789 772.047 212.451 771.471 213.112C770.916 213.773 770.18 214.328 769.263 214.776C768.367 215.224 767.215 215.448 765.807 215.448ZM760.431 205.752H770.607C770.521 204.301 770.02 203.171 769.103 202.36C768.207 201.549 767.055 201.144 765.647 201.144C764.217 201.144 763.044 201.549 762.127 202.36C761.209 203.171 760.644 204.301 760.431 205.752ZM106.639 262.448C105.124 262.448 103.759 262.128 102.543 261.488C101.348 260.827 100.399 259.888 99.6951 258.672C99.0124 257.456 98.6711 256.016 98.6711 254.352V254C98.6711 252.315 99.0124 250.875 99.6951 249.68C100.399 248.464 101.348 247.536 102.543 246.896C103.759 246.235 105.124 245.904 106.639 245.904C108.132 245.904 109.402 246.181 110.447 246.736C111.514 247.291 112.346 248.027 112.943 248.944C113.562 249.861 113.956 250.843 114.127 251.888L111.663 252.4C111.556 251.632 111.3 250.928 110.895 250.288C110.511 249.648 109.967 249.136 109.263 248.752C108.559 248.368 107.695 248.176 106.671 248.176C105.626 248.176 104.687 248.411 103.855 248.88C103.044 249.349 102.394 250.021 101.903 250.896C101.434 251.771 101.199 252.816 101.199 254.032V254.32C101.199 255.536 101.434 256.581 101.903 257.456C102.394 258.331 103.044 259.003 103.855 259.472C104.687 259.941 105.626 260.176 106.671 260.176C108.228 260.176 109.412 259.771 110.223 258.96C111.055 258.149 111.567 257.147 111.759 255.952L114.255 256.496C114.02 257.52 113.594 258.491 112.975 259.408C112.356 260.325 111.514 261.061 110.447 261.616C109.402 262.171 108.132 262.448 106.639 262.448ZM125.156 262.448C123.577 262.448 122.18 262.117 120.964 261.456C119.769 260.795 118.831 259.867 118.148 258.672C117.487 257.456 117.156 256.027 117.156 254.384V253.968C117.156 252.347 117.487 250.928 118.148 249.712C118.831 248.496 119.769 247.557 120.964 246.896C122.18 246.235 123.577 245.904 125.156 245.904C126.735 245.904 128.121 246.235 129.316 246.896C130.532 247.557 131.471 248.496 132.132 249.712C132.815 250.928 133.156 252.347 133.156 253.968V254.384C133.156 256.027 132.815 257.456 132.132 258.672C131.471 259.867 130.532 260.795 129.316 261.456C128.121 262.117 126.735 262.448 125.156 262.448ZM125.156 260.176C126.82 260.176 128.143 259.653 129.124 258.608C130.127 257.541 130.628 256.112 130.628 254.32V254.032C130.628 252.24 130.127 250.821 129.124 249.776C128.143 248.709 126.82 248.176 125.156 248.176C123.513 248.176 122.191 248.709 121.188 249.776C120.185 250.821 119.684 252.24 119.684 254.032V254.32C119.684 256.112 120.185 257.541 121.188 258.608C122.191 259.653 123.513 260.176 125.156 260.176ZM137.065 262V246.352H139.529V248.304H139.977C140.276 247.749 140.767 247.237 141.449 246.768C142.132 246.299 143.092 246.064 144.329 246.064C145.545 246.064 146.527 246.331 147.273 246.864C148.041 247.397 148.596 248.048 148.937 248.816H149.385C149.748 248.048 150.292 247.397 151.017 246.864C151.764 246.331 152.799 246.064 154.121 246.064C155.167 246.064 156.084 246.277 156.873 246.704C157.663 247.131 158.281 247.749 158.729 248.56C159.199 249.349 159.433 250.299 159.433 251.408V262H156.905V251.632C156.905 250.587 156.596 249.765 155.977 249.168C155.38 248.549 154.537 248.24 153.449 248.24C152.297 248.24 151.348 248.613 150.601 249.36C149.876 250.107 149.513 251.184 149.513 252.592V262H146.985V251.632C146.985 250.587 146.676 249.765 146.057 249.168C145.46 248.549 144.617 248.24 143.529 248.24C142.377 248.24 141.428 248.613 140.681 249.36C139.956 250.107 139.593 251.184 139.593 252.592V262H137.065ZM163.957 262V246.352H166.485V262H163.957ZM165.237 243.92C164.682 243.92 164.213 243.739 163.829 243.376C163.466 243.013 163.285 242.555 163.285 242C163.285 241.424 163.466 240.955 163.829 240.592C164.213 240.229 164.682 240.048 165.237 240.048C165.791 240.048 166.25 240.229 166.613 240.592C166.975 240.955 167.157 241.424 167.157 242C167.157 242.555 166.975 243.013 166.613 243.376C166.25 243.739 165.791 243.92 165.237 243.92ZM171.16 262V246.352H173.624V249.008H174.072C174.414 248.261 174.99 247.589 175.8 246.992C176.632 246.373 177.848 246.064 179.448 246.064C180.622 246.064 181.667 246.309 182.584 246.8C183.523 247.291 184.27 248.016 184.824 248.976C185.379 249.936 185.656 251.12 185.656 252.528V262H183.128V252.72C183.128 251.163 182.734 250.032 181.944 249.328C181.176 248.624 180.131 248.272 178.808 248.272C177.294 248.272 176.056 248.763 175.096 249.744C174.158 250.725 173.688 252.187 173.688 254.128V262H171.16ZM189.377 254.256V253.808C189.377 252.165 189.708 250.757 190.369 249.584C191.031 248.411 191.927 247.504 193.057 246.864C194.188 246.224 195.425 245.904 196.769 245.904C198.412 245.904 199.671 246.224 200.545 246.864C201.441 247.483 202.103 248.176 202.529 248.944H202.977V246.352H205.377V265.648C205.377 266.501 205.143 267.173 204.673 267.664C204.204 268.155 203.521 268.4 202.625 268.4H192.001V266.16H201.953C202.593 266.16 202.913 265.84 202.913 265.2V259.248H202.465C202.209 259.717 201.847 260.176 201.377 260.624C200.908 261.072 200.3 261.445 199.553 261.744C198.807 262.021 197.879 262.16 196.769 262.16C195.425 262.16 194.188 261.84 193.057 261.2C191.927 260.56 191.031 259.653 190.369 258.48C189.708 257.285 189.377 255.877 189.377 254.256ZM197.441 259.92C199.063 259.92 200.375 259.408 201.377 258.384C202.401 257.36 202.913 255.952 202.913 254.16V253.904C202.913 252.091 202.401 250.683 201.377 249.68C200.375 248.656 199.063 248.144 197.441 248.144C195.841 248.144 194.519 248.656 193.473 249.68C192.449 250.683 191.937 252.091 191.937 253.904V254.16C191.937 255.952 192.449 257.36 193.473 258.384C194.519 259.408 195.841 259.92 197.441 259.92ZM224.847 262.448C223.269 262.448 221.871 262.117 220.655 261.456C219.461 260.795 218.522 259.867 217.839 258.672C217.178 257.456 216.847 256.027 216.847 254.384V253.968C216.847 252.347 217.178 250.928 217.839 249.712C218.522 248.496 219.461 247.557 220.655 246.896C221.871 246.235 223.269 245.904 224.847 245.904C226.426 245.904 227.813 246.235 229.007 246.896C230.223 247.557 231.162 248.496 231.823 249.712C232.506 250.928 232.847 252.347 232.847 253.968V254.384C232.847 256.027 232.506 257.456 231.823 258.672C231.162 259.867 230.223 260.795 229.007 261.456C227.813 262.117 226.426 262.448 224.847 262.448ZM224.847 260.176C226.511 260.176 227.834 259.653 228.815 258.608C229.818 257.541 230.319 256.112 230.319 254.32V254.032C230.319 252.24 229.818 250.821 228.815 249.776C227.834 248.709 226.511 248.176 224.847 248.176C223.205 248.176 221.882 248.709 220.879 249.776C219.877 250.821 219.375 252.24 219.375 254.032V254.32C219.375 256.112 219.877 257.541 220.879 258.608C221.882 259.653 223.205 260.176 224.847 260.176ZM239.172 262V248.56H234.372V246.352H239.172V242.352C239.172 241.499 239.407 240.827 239.876 240.336C240.367 239.845 241.06 239.6 241.956 239.6H245.892V241.776H242.66C242.02 241.776 241.7 242.096 241.7 242.736V246.352H246.628V248.56H241.7V262H239.172ZM262.955 262C262.059 262 261.366 261.755 260.875 261.264C260.406 260.773 260.171 260.101 260.171 259.248V248.56H255.467V246.352H260.171V240.784H262.699V246.352H267.819V248.56H262.699V258.864C262.699 259.504 263.009 259.824 263.627 259.824H267.115V262H262.955ZM271.274 262V239.6H273.802V248.848H274.25C274.463 248.379 274.783 247.941 275.21 247.536C275.658 247.109 276.223 246.757 276.906 246.48C277.61 246.203 278.495 246.064 279.562 246.064C280.735 246.064 281.781 246.32 282.698 246.832C283.637 247.323 284.383 248.048 284.938 249.008C285.493 249.947 285.77 251.12 285.77 252.528V262H283.242V252.72C283.242 251.163 282.847 250.032 282.058 249.328C281.29 248.624 280.245 248.272 278.922 248.272C277.407 248.272 276.17 248.763 275.21 249.744C274.271 250.725 273.802 252.187 273.802 254.128V262H271.274ZM297.427 262.448C295.848 262.448 294.462 262.117 293.267 261.456C292.072 260.773 291.144 259.824 290.483 258.608C289.822 257.392 289.491 255.984 289.491 254.384V254C289.491 252.379 289.822 250.96 290.483 249.744C291.144 248.528 292.062 247.589 293.235 246.928C294.408 246.245 295.752 245.904 297.267 245.904C298.739 245.904 300.04 246.224 301.171 246.864C302.302 247.483 303.187 248.379 303.827 249.552C304.467 250.725 304.787 252.101 304.787 253.68V254.832H292.019C292.083 256.517 292.627 257.84 293.651 258.8C294.675 259.739 295.955 260.208 297.491 260.208C298.835 260.208 299.87 259.899 300.595 259.28C301.32 258.661 301.875 257.925 302.259 257.072L304.435 258.128C304.115 258.789 303.667 259.451 303.091 260.112C302.536 260.773 301.8 261.328 300.883 261.776C299.987 262.224 298.835 262.448 297.427 262.448ZM292.051 252.752H302.227C302.142 251.301 301.64 250.171 300.723 249.36C299.827 248.549 298.675 248.144 297.267 248.144C295.838 248.144 294.664 248.549 293.747 249.36C292.83 250.171 292.264 251.301 292.051 252.752ZM322.439 262.448C320.498 262.448 318.855 262 317.511 261.104C316.189 260.208 315.389 258.789 315.111 256.848L317.511 256.304C317.682 257.328 318.002 258.139 318.471 258.736C318.941 259.312 319.517 259.728 320.199 259.984C320.903 260.219 321.65 260.336 322.439 260.336C323.613 260.336 324.541 260.101 325.223 259.632C325.906 259.163 326.247 258.533 326.247 257.744C326.247 256.933 325.917 256.368 325.255 256.048C324.615 255.707 323.73 255.429 322.599 255.216L321.287 254.992C320.285 254.821 319.367 254.555 318.535 254.192C317.703 253.829 317.042 253.339 316.551 252.72C316.061 252.101 315.815 251.323 315.815 250.384C315.815 248.976 316.359 247.877 317.447 247.088C318.535 246.299 319.975 245.904 321.767 245.904C323.538 245.904 324.967 246.309 326.055 247.12C327.165 247.909 327.879 249.029 328.199 250.48L325.831 251.088C325.639 249.957 325.181 249.168 324.455 248.72C323.73 248.251 322.834 248.016 321.767 248.016C320.701 248.016 319.858 248.219 319.239 248.624C318.621 249.008 318.311 249.584 318.311 250.352C318.311 251.099 318.599 251.653 319.175 252.016C319.773 252.357 320.562 252.613 321.543 252.784L322.855 253.008C323.965 253.2 324.957 253.467 325.831 253.808C326.727 254.128 327.431 254.597 327.943 255.216C328.477 255.835 328.743 256.645 328.743 257.648C328.743 259.184 328.167 260.368 327.015 261.2C325.885 262.032 324.359 262.448 322.439 262.448ZM337.045 262.448C335.957 262.448 334.965 262.256 334.069 261.872C333.173 261.488 332.469 260.933 331.957 260.208C331.445 259.483 331.189 258.597 331.189 257.552C331.189 256.485 331.445 255.611 331.957 254.928C332.469 254.224 333.173 253.701 334.069 253.36C334.965 252.997 335.968 252.816 337.077 252.816H342.357V251.664C342.357 250.555 342.027 249.68 341.365 249.04C340.725 248.4 339.765 248.08 338.485 248.08C337.227 248.08 336.245 248.389 335.541 249.008C334.837 249.605 334.357 250.416 334.101 251.44L331.733 250.672C331.989 249.797 332.395 249.008 332.949 248.304C333.504 247.579 334.24 247.003 335.157 246.576C336.096 246.128 337.216 245.904 338.517 245.904C340.523 245.904 342.08 246.427 343.189 247.472C344.299 248.496 344.853 249.947 344.853 251.824V258.896C344.853 259.536 345.152 259.856 345.749 259.856H347.189V262H344.981C344.277 262 343.712 261.808 343.285 261.424C342.859 261.019 342.645 260.485 342.645 259.824V259.664H342.261C342.027 260.069 341.707 260.496 341.301 260.944C340.917 261.371 340.384 261.723 339.701 262C339.019 262.299 338.133 262.448 337.045 262.448ZM337.333 260.272C338.827 260.272 340.032 259.835 340.949 258.96C341.888 258.064 342.357 256.816 342.357 255.216V254.864H337.173C336.171 254.864 335.339 255.088 334.677 255.536C334.037 255.963 333.717 256.613 333.717 257.488C333.717 258.363 334.048 259.045 334.709 259.536C335.392 260.027 336.267 260.272 337.333 260.272ZM353.105 262L347.505 246.352H350.193L354.897 260.112H355.345L360.049 246.352H362.737L357.137 262H353.105ZM365.747 262V246.352H368.275V262H365.747ZM367.027 243.92C366.472 243.92 366.003 243.739 365.619 243.376C365.256 243.013 365.075 242.555 365.075 242C365.075 241.424 365.256 240.955 365.619 240.592C366.003 240.229 366.472 240.048 367.027 240.048C367.581 240.048 368.04 240.229 368.403 240.592C368.765 240.955 368.947 241.424 368.947 242C368.947 242.555 368.765 243.013 368.403 243.376C368.04 243.739 367.581 243.92 367.027 243.92ZM380.182 262.448C378.604 262.448 377.206 262.117 375.99 261.456C374.796 260.795 373.857 259.867 373.174 258.672C372.513 257.456 372.182 256.027 372.182 254.384V253.968C372.182 252.347 372.513 250.928 373.174 249.712C373.857 248.496 374.796 247.557 375.99 246.896C377.206 246.235 378.604 245.904 380.182 245.904C381.761 245.904 383.148 246.235 384.342 246.896C385.558 247.557 386.497 248.496 387.158 249.712C387.841 250.928 388.182 252.347 388.182 253.968V254.384C388.182 256.027 387.841 257.456 387.158 258.672C386.497 259.867 385.558 260.795 384.342 261.456C383.148 262.117 381.761 262.448 380.182 262.448ZM380.182 260.176C381.846 260.176 383.169 259.653 384.15 258.608C385.153 257.541 385.654 256.112 385.654 254.32V254.032C385.654 252.24 385.153 250.821 384.15 249.776C383.169 248.709 381.846 248.176 380.182 248.176C378.54 248.176 377.217 248.709 376.214 249.776C375.212 250.821 374.71 252.24 374.71 254.032V254.32C374.71 256.112 375.212 257.541 376.214 258.608C377.217 259.653 378.54 260.176 380.182 260.176ZM398.076 262.288C396.945 262.288 395.9 262.043 394.94 261.552C394.001 261.061 393.254 260.336 392.7 259.376C392.166 258.395 391.9 257.211 391.9 255.824V246.352H394.428V255.632C394.428 257.189 394.812 258.32 395.58 259.024C396.369 259.728 397.425 260.08 398.748 260.08C400.241 260.08 401.468 259.589 402.428 258.608C403.388 257.627 403.868 256.165 403.868 254.224V246.352H406.396V262H403.932V259.344H403.484C403.142 260.091 402.556 260.773 401.724 261.392C400.892 261.989 399.676 262.288 398.076 262.288ZM411.045 262V246.352H413.509V248.272H413.957C414.235 247.589 414.661 247.088 415.237 246.768C415.813 246.448 416.571 246.288 417.509 246.288H419.365V248.592H417.349C416.219 248.592 415.301 248.912 414.597 249.552C413.915 250.171 413.573 251.141 413.573 252.464V262H411.045ZM420.181 266V264.4H421.109C421.877 264.4 422.261 264.016 422.261 263.248V262.224H421.813C421.194 262.224 420.671 262.032 420.245 261.648C419.839 261.264 419.637 260.784 419.637 260.208C419.637 259.589 419.839 259.088 420.245 258.704C420.671 258.32 421.194 258.128 421.813 258.128C422.431 258.128 422.943 258.331 423.349 258.736C423.754 259.141 423.957 259.653 423.957 260.272V263.248C423.957 265.083 423.039 266 421.205 266H420.181ZM440.104 262C439.208 262 438.515 261.755 438.024 261.264C437.555 260.773 437.32 260.101 437.32 259.248V248.56H432.616V246.352H437.32V240.784H439.848V246.352H444.968V248.56H439.848V258.864C439.848 259.504 440.157 259.824 440.776 259.824H444.264V262H440.104ZM448.423 262V239.6H450.951V248.848H451.399C451.612 248.379 451.932 247.941 452.359 247.536C452.807 247.109 453.372 246.757 454.055 246.48C454.759 246.203 455.644 246.064 456.711 246.064C457.884 246.064 458.93 246.32 459.847 246.832C460.786 247.323 461.532 248.048 462.087 249.008C462.642 249.947 462.919 251.12 462.919 252.528V262H460.391V252.72C460.391 251.163 459.996 250.032 459.207 249.328C458.439 248.624 457.394 248.272 456.071 248.272C454.556 248.272 453.319 248.763 452.359 249.744C451.42 250.725 450.951 252.187 450.951 254.128V262H448.423ZM474.576 262.448C472.997 262.448 471.611 262.117 470.416 261.456C469.221 260.773 468.293 259.824 467.632 258.608C466.971 257.392 466.64 255.984 466.64 254.384V254C466.64 252.379 466.971 250.96 467.632 249.744C468.293 248.528 469.211 247.589 470.384 246.928C471.557 246.245 472.901 245.904 474.416 245.904C475.888 245.904 477.189 246.224 478.32 246.864C479.451 247.483 480.336 248.379 480.976 249.552C481.616 250.725 481.936 252.101 481.936 253.68V254.832H469.168C469.232 256.517 469.776 257.84 470.8 258.8C471.824 259.739 473.104 260.208 474.64 260.208C475.984 260.208 477.019 259.899 477.744 259.28C478.469 258.661 479.024 257.925 479.408 257.072L481.584 258.128C481.264 258.789 480.816 259.451 480.24 260.112C479.685 260.773 478.949 261.328 478.032 261.776C477.136 262.224 475.984 262.448 474.576 262.448ZM469.2 252.752H479.376C479.291 251.301 478.789 250.171 477.872 249.36C476.976 248.549 475.824 248.144 474.416 248.144C472.987 248.144 471.813 248.549 470.896 249.36C469.979 250.171 469.413 251.301 469.2 252.752ZM493.188 262V239.6H495.876V259.568H507.204V262H493.188ZM517.22 262.448C515.641 262.448 514.244 262.117 513.028 261.456C511.833 260.795 510.895 259.867 510.212 258.672C509.551 257.456 509.22 256.027 509.22 254.384V253.968C509.22 252.347 509.551 250.928 510.212 249.712C510.895 248.496 511.833 247.557 513.028 246.896C514.244 246.235 515.641 245.904 517.22 245.904C518.799 245.904 520.185 246.235 521.38 246.896C522.596 247.557 523.535 248.496 524.196 249.712C524.879 250.928 525.22 252.347 525.22 253.968V254.384C525.22 256.027 524.879 257.456 524.196 258.672C523.535 259.867 522.596 260.795 521.38 261.456C520.185 262.117 518.799 262.448 517.22 262.448ZM517.22 260.176C518.884 260.176 520.207 259.653 521.188 258.608C522.191 257.541 522.692 256.112 522.692 254.32V254.032C522.692 252.24 522.191 250.821 521.188 249.776C520.207 248.709 518.884 248.176 517.22 248.176C515.577 248.176 514.255 248.709 513.252 249.776C512.249 250.821 511.748 252.24 511.748 254.032V254.32C511.748 256.112 512.249 257.541 513.252 258.608C514.255 259.653 515.577 260.176 517.22 260.176ZM529.129 262V246.352H531.593V248.272H532.041C532.318 247.589 532.745 247.088 533.321 246.768C533.897 246.448 534.654 246.288 535.593 246.288H537.449V248.592H535.433C534.302 248.592 533.385 248.912 532.681 249.552C531.998 250.171 531.657 251.141 531.657 252.464V262H529.129ZM546.613 262.448C545.269 262.448 544.032 262.128 542.901 261.488C541.77 260.848 540.874 259.92 540.213 258.704C539.552 257.488 539.221 256.048 539.221 254.384V253.968C539.221 252.304 539.552 250.875 540.213 249.68C540.874 248.464 541.76 247.536 542.869 246.896C544 246.235 545.248 245.904 546.613 245.904C547.701 245.904 548.618 246.053 549.365 246.352C550.133 246.629 550.752 246.992 551.221 247.44C551.69 247.867 552.053 248.325 552.309 248.816H552.757V239.6H555.285V262H552.821V259.408H552.373C551.946 260.197 551.285 260.901 550.389 261.52C549.493 262.139 548.234 262.448 546.613 262.448ZM547.285 260.208C548.906 260.208 550.218 259.696 551.221 258.672C552.245 257.627 552.757 256.176 552.757 254.32V254.032C552.757 252.176 552.245 250.736 551.221 249.712C550.218 248.667 548.906 248.144 547.285 248.144C545.685 248.144 544.362 248.667 543.317 249.712C542.293 250.736 541.781 252.176 541.781 254.032V254.32C541.781 256.176 542.293 257.627 543.317 258.672C544.362 259.696 545.685 260.208 547.285 260.208ZM573.282 262.448C571.084 262.448 569.346 261.829 568.066 260.592C566.807 259.355 566.178 257.584 566.178 255.28V253.552H568.834V255.28C568.834 256.667 569.196 257.797 569.922 258.672C570.668 259.547 571.778 259.984 573.25 259.984C574.743 259.984 575.799 259.557 576.418 258.704C577.036 257.829 577.346 256.688 577.346 255.28V242.032H573.41V239.6H582.466V242.032H580.034V255.28C580.034 257.605 579.458 259.387 578.306 260.624C577.154 261.84 575.479 262.448 573.282 262.448ZM592.175 262.448C590.596 262.448 589.209 262.117 588.015 261.456C586.82 260.773 585.892 259.824 585.231 258.608C584.569 257.392 584.239 255.984 584.239 254.384V254C584.239 252.379 584.569 250.96 585.231 249.744C585.892 248.528 586.809 247.589 587.983 246.928C589.156 246.245 590.5 245.904 592.015 245.904C593.487 245.904 594.788 246.224 595.919 246.864C597.049 247.483 597.935 248.379 598.575 249.552C599.215 250.725 599.535 252.101 599.535 253.68V254.832H586.767C586.831 256.517 587.375 257.84 588.399 258.8C589.423 259.739 590.703 260.208 592.239 260.208C593.583 260.208 594.617 259.899 595.343 259.28C596.068 258.661 596.623 257.925 597.007 257.072L599.183 258.128C598.863 258.789 598.415 259.451 597.839 260.112C597.284 260.773 596.548 261.328 595.631 261.776C594.735 262.224 593.583 262.448 592.175 262.448ZM586.799 252.752H596.975C596.889 251.301 596.388 250.171 595.471 249.36C594.575 248.549 593.423 248.144 592.015 248.144C590.585 248.144 589.412 248.549 588.495 249.36C587.577 250.171 587.012 251.301 586.799 252.752ZM609.608 262.448C607.667 262.448 606.024 262 604.68 261.104C603.357 260.208 602.557 258.789 602.28 256.848L604.68 256.304C604.851 257.328 605.171 258.139 605.64 258.736C606.109 259.312 606.685 259.728 607.368 259.984C608.072 260.219 608.819 260.336 609.608 260.336C610.781 260.336 611.709 260.101 612.392 259.632C613.075 259.163 613.416 258.533 613.416 257.744C613.416 256.933 613.085 256.368 612.424 256.048C611.784 255.707 610.899 255.429 609.768 255.216L608.456 254.992C607.453 254.821 606.536 254.555 605.704 254.192C604.872 253.829 604.211 253.339 603.72 252.72C603.229 252.101 602.984 251.323 602.984 250.384C602.984 248.976 603.528 247.877 604.616 247.088C605.704 246.299 607.144 245.904 608.936 245.904C610.707 245.904 612.136 246.309 613.224 247.12C614.333 247.909 615.048 249.029 615.368 250.48L613 251.088C612.808 249.957 612.349 249.168 611.624 248.72C610.899 248.251 610.003 248.016 608.936 248.016C607.869 248.016 607.027 248.219 606.408 248.624C605.789 249.008 605.48 249.584 605.48 250.352C605.48 251.099 605.768 251.653 606.344 252.016C606.941 252.357 607.731 252.613 608.712 252.784L610.024 253.008C611.133 253.2 612.125 253.467 613 253.808C613.896 254.128 614.6 254.597 615.112 255.216C615.645 255.835 615.912 256.645 615.912 257.648C615.912 259.184 615.336 260.368 614.184 261.2C613.053 262.032 611.528 262.448 609.608 262.448ZM625.523 262.288C624.392 262.288 623.347 262.043 622.387 261.552C621.448 261.061 620.702 260.336 620.147 259.376C619.614 258.395 619.347 257.211 619.347 255.824V246.352H621.875V255.632C621.875 257.189 622.259 258.32 623.027 259.024C623.816 259.728 624.872 260.08 626.195 260.08C627.688 260.08 628.915 259.589 629.875 258.608C630.835 257.627 631.315 256.165 631.315 254.224V246.352H633.843V262H631.379V259.344H630.931C630.59 260.091 630.003 260.773 629.171 261.392C628.339 261.989 627.123 262.288 625.523 262.288ZM644.797 262.448C642.856 262.448 641.213 262 639.869 261.104C638.546 260.208 637.746 258.789 637.469 256.848L639.869 256.304C640.04 257.328 640.36 258.139 640.829 258.736C641.298 259.312 641.874 259.728 642.557 259.984C643.261 260.219 644.008 260.336 644.797 260.336C645.97 260.336 646.898 260.101 647.581 259.632C648.264 259.163 648.605 258.533 648.605 257.744C648.605 256.933 648.274 256.368 647.613 256.048C646.973 255.707 646.088 255.429 644.957 255.216L643.645 254.992C642.642 254.821 641.725 254.555 640.893 254.192C640.061 253.829 639.4 253.339 638.909 252.72C638.418 252.101 638.173 251.323 638.173 250.384C638.173 248.976 638.717 247.877 639.805 247.088C640.893 246.299 642.333 245.904 644.125 245.904C645.896 245.904 647.325 246.309 648.413 247.12C649.522 247.909 650.237 249.029 650.557 250.48L648.189 251.088C647.997 249.957 647.538 249.168 646.813 248.72C646.088 248.251 645.192 248.016 644.125 248.016C643.058 248.016 642.216 248.219 641.597 248.624C640.978 249.008 640.669 249.584 640.669 250.352C640.669 251.099 640.957 251.653 641.533 252.016C642.13 252.357 642.92 252.613 643.901 252.784L645.213 253.008C646.322 253.2 647.314 253.467 648.189 253.808C649.085 254.128 649.789 254.597 650.301 255.216C650.834 255.835 651.101 256.645 651.101 257.648C651.101 259.184 650.525 260.368 649.373 261.2C648.242 262.032 646.717 262.448 644.797 262.448ZM670.307 262.448C667.64 262.448 665.517 261.68 663.939 260.144C662.36 258.587 661.571 256.325 661.571 253.36V248.24C661.571 245.275 662.36 243.024 663.939 241.488C665.517 239.931 667.64 239.152 670.307 239.152C672.952 239.152 674.979 239.888 676.387 241.36C677.816 242.832 678.531 244.848 678.531 247.408V247.568H675.875V247.312C675.875 245.627 675.416 244.251 674.499 243.184C673.603 242.096 672.205 241.552 670.307 241.552C668.408 241.552 666.925 242.139 665.859 243.312C664.792 244.464 664.259 246.085 664.259 248.176V253.424C664.259 255.515 664.792 257.147 665.859 258.32C666.925 259.472 668.408 260.048 670.307 260.048C672.205 260.048 673.603 259.515 674.499 258.448C675.416 257.36 675.875 255.973 675.875 254.288V253.776H678.531V254.192C678.531 256.752 677.816 258.768 676.387 260.24C674.979 261.712 672.952 262.448 670.307 262.448ZM682.198 262V239.6H684.726V248.848H685.174C685.387 248.379 685.707 247.941 686.134 247.536C686.582 247.109 687.147 246.757 687.83 246.48C688.534 246.203 689.419 246.064 690.486 246.064C691.659 246.064 692.705 246.32 693.622 246.832C694.561 247.323 695.307 248.048 695.862 249.008C696.417 249.947 696.694 251.12 696.694 252.528V262H694.166V252.72C694.166 251.163 693.771 250.032 692.982 249.328C692.214 248.624 691.169 248.272 689.846 248.272C688.331 248.272 687.094 248.763 686.134 249.744C685.195 250.725 684.726 252.187 684.726 254.128V262H682.198ZM701.183 262V246.352H703.647V248.272H704.095C704.372 247.589 704.799 247.088 705.375 246.768C705.951 246.448 706.708 246.288 707.647 246.288H709.503V248.592H707.487C706.356 248.592 705.439 248.912 704.735 249.552C704.052 250.171 703.711 251.141 703.711 252.464V262H701.183ZM712.605 262V246.352H715.133V262H712.605ZM713.885 243.92C713.331 243.92 712.861 243.739 712.477 243.376C712.115 243.013 711.933 242.555 711.933 242C711.933 241.424 712.115 240.955 712.477 240.592C712.861 240.229 713.331 240.048 713.885 240.048C714.44 240.048 714.899 240.229 715.261 240.592C715.624 240.955 715.805 241.424 715.805 242C715.805 242.555 715.624 243.013 715.261 243.376C714.899 243.739 714.44 243.92 713.885 243.92ZM726.113 262.448C724.172 262.448 722.529 262 721.185 261.104C719.862 260.208 719.062 258.789 718.785 256.848L721.185 256.304C721.356 257.328 721.676 258.139 722.145 258.736C722.614 259.312 723.19 259.728 723.873 259.984C724.577 260.219 725.324 260.336 726.113 260.336C727.286 260.336 728.214 260.101 728.897 259.632C729.58 259.163 729.921 258.533 729.921 257.744C729.921 256.933 729.59 256.368 728.929 256.048C728.289 255.707 727.404 255.429 726.273 255.216L724.961 254.992C723.958 254.821 723.041 254.555 722.209 254.192C721.377 253.829 720.716 253.339 720.225 252.72C719.734 252.101 719.489 251.323 719.489 250.384C719.489 248.976 720.033 247.877 721.121 247.088C722.209 246.299 723.649 245.904 725.441 245.904C727.212 245.904 728.641 246.309 729.729 247.12C730.838 247.909 731.553 249.029 731.873 250.48L729.505 251.088C729.313 249.957 728.854 249.168 728.129 248.72C727.404 248.251 726.508 248.016 725.441 248.016C724.374 248.016 723.532 248.219 722.913 248.624C722.294 249.008 721.985 249.584 721.985 250.352C721.985 251.099 722.273 251.653 722.849 252.016C723.446 252.357 724.236 252.613 725.217 252.784L726.529 253.008C727.638 253.2 728.63 253.467 729.505 253.808C730.401 254.128 731.105 254.597 731.617 255.216C732.15 255.835 732.417 256.645 732.417 257.648C732.417 259.184 731.841 260.368 730.689 261.2C729.558 262.032 728.033 262.448 726.113 262.448ZM741.46 262C740.564 262 739.871 261.755 739.38 261.264C738.911 260.773 738.676 260.101 738.676 259.248V248.56H733.972V246.352H738.676V240.784H741.204V246.352H746.324V248.56H741.204V258.864C741.204 259.504 741.514 259.824 742.132 259.824H745.62V262H741.46ZM751.155 250.256C750.537 250.256 750.014 250.053 749.587 249.648C749.182 249.243 748.979 248.72 748.979 248.08C748.979 247.44 749.182 246.917 749.587 246.512C750.014 246.107 750.537 245.904 751.155 245.904C751.795 245.904 752.318 246.107 752.723 246.512C753.129 246.917 753.331 247.44 753.331 248.08C753.331 248.72 753.129 249.243 752.723 249.648C752.318 250.053 751.795 250.256 751.155 250.256ZM749.555 266V264.4H750.483C751.251 264.4 751.635 264.016 751.635 263.248V262.224H751.187C750.569 262.224 750.046 262.032 749.619 261.648C749.214 261.264 749.011 260.784 749.011 260.208C749.011 259.589 749.214 259.088 749.619 258.704C750.046 258.32 750.569 258.128 751.187 258.128C751.806 258.128 752.318 258.331 752.723 258.736C753.129 259.141 753.331 259.653 753.331 260.272V263.248C753.331 265.083 752.414 266 750.579 266H749.555Z" fill="#292929"/>
<path d="M316.696 309V286.6H325.752C327.16 286.6 328.397 286.877 329.464 287.432C330.53 287.987 331.373 288.776 331.992 289.8C332.61 290.803 332.92 291.997 332.92 293.384V293.832C332.92 295.197 332.6 296.392 331.96 297.416C331.341 298.44 330.488 299.229 329.4 299.784C328.333 300.339 327.117 300.616 325.752 300.616H320.568V309H316.696ZM320.568 297.128H325.368C326.477 297.128 327.362 296.829 328.024 296.232C328.706 295.635 329.048 294.813 329.048 293.768V293.448C329.048 292.403 328.717 291.581 328.056 290.984C327.394 290.387 326.498 290.088 325.368 290.088H320.568V297.128ZM335.465 309V286.6H339.145V295.272H339.689C339.859 294.909 340.137 294.547 340.521 294.184C340.905 293.821 341.406 293.523 342.025 293.288C342.665 293.053 343.465 292.936 344.425 292.936C345.641 292.936 346.718 293.213 347.657 293.768C348.595 294.301 349.321 295.059 349.833 296.04C350.366 297.021 350.633 298.184 350.633 299.528V309H346.953V299.816C346.953 298.536 346.633 297.587 345.993 296.968C345.374 296.328 344.489 296.008 343.337 296.008C342.035 296.008 341.011 296.445 340.265 297.32C339.518 298.173 339.145 299.4 339.145 301V309H335.465ZM354.512 309V293.192H358.192V309H354.512ZM356.336 291.176C355.675 291.176 355.099 290.963 354.608 290.536C354.139 290.088 353.904 289.501 353.904 288.776C353.904 288.051 354.139 287.475 354.608 287.048C355.099 286.6 355.675 286.376 356.336 286.376C357.04 286.376 357.616 286.6 358.064 287.048C358.534 287.475 358.768 288.051 358.768 288.776C358.768 289.501 358.534 290.088 358.064 290.536C357.616 290.963 357.04 291.176 356.336 291.176ZM362.216 309V286.6H365.896V309H362.216ZM369.92 309V286.6H373.6V309H369.92ZM377.624 309V293.192H381.304V309H377.624ZM379.448 291.176C378.786 291.176 378.21 290.963 377.72 290.536C377.25 290.088 377.016 289.501 377.016 288.776C377.016 288.051 377.25 287.475 377.72 287.048C378.21 286.6 378.786 286.376 379.448 286.376C380.152 286.376 380.728 286.6 381.176 287.048C381.645 287.475 381.88 288.051 381.88 288.776C381.88 289.501 381.645 290.088 381.176 290.536C380.728 290.963 380.152 291.176 379.448 291.176ZM385.327 315.4V293.192H388.943V295.272H389.487C389.85 294.611 390.426 294.024 391.215 293.512C392.026 293 393.178 292.744 394.671 292.744C395.951 292.744 397.135 293.064 398.223 293.704C399.333 294.323 400.218 295.24 400.879 296.456C401.541 297.672 401.871 299.133 401.871 300.84V301.352C401.871 303.059 401.541 304.52 400.879 305.736C400.218 306.952 399.343 307.88 398.255 308.52C397.167 309.139 395.973 309.448 394.671 309.448C393.669 309.448 392.826 309.331 392.143 309.096C391.482 308.861 390.938 308.552 390.511 308.168C390.106 307.784 389.786 307.4 389.551 307.016H389.007V315.4H385.327ZM393.583 306.248C394.927 306.248 396.026 305.821 396.879 304.968C397.754 304.093 398.191 302.856 398.191 301.256V300.936C398.191 299.315 397.754 298.077 396.879 297.224C396.005 296.371 394.906 295.944 393.583 295.944C392.261 295.944 391.151 296.371 390.255 297.224C389.381 298.077 388.943 299.315 388.943 300.936V301.256C388.943 302.856 389.381 304.093 390.255 304.968C391.151 305.821 392.261 306.248 393.583 306.248ZM405.125 309V293.192H408.805V309H405.125ZM406.949 291.176C406.287 291.176 405.711 290.963 405.221 290.536C404.751 290.088 404.517 289.501 404.517 288.776C404.517 288.051 404.751 287.475 405.221 287.048C405.711 286.6 406.287 286.376 406.949 286.376C407.653 286.376 408.229 286.6 408.677 287.048C409.146 287.475 409.381 288.051 409.381 288.776C409.381 289.501 409.146 290.088 408.677 290.536C408.229 290.963 407.653 291.176 406.949 291.176ZM417.724 309.448C416.615 309.448 415.612 309.256 414.716 308.872C413.82 308.467 413.106 307.891 412.572 307.144C412.06 306.397 411.804 305.48 411.804 304.392C411.804 303.325 412.06 302.429 412.572 301.704C413.106 300.979 413.831 300.435 414.748 300.072C415.666 299.688 416.711 299.496 417.884 299.496H422.46V298.536C422.46 297.704 422.204 297.032 421.692 296.52C421.18 295.987 420.38 295.72 419.292 295.72C418.226 295.72 417.415 295.976 416.86 296.488C416.327 296.979 415.975 297.619 415.804 298.408L412.412 297.288C412.668 296.456 413.074 295.699 413.628 295.016C414.204 294.333 414.962 293.789 415.9 293.384C416.839 292.957 417.991 292.744 419.356 292.744C421.426 292.744 423.047 293.267 424.22 294.312C425.415 295.336 426.012 296.829 426.012 298.792V305C426.012 305.64 426.311 305.96 426.908 305.96H428.252V309H425.66C424.892 309 424.263 308.808 423.772 308.424C423.282 308.04 423.036 307.517 423.036 306.856V306.792H422.492C422.364 307.091 422.14 307.453 421.82 307.88C421.5 308.307 421.01 308.68 420.348 309C419.708 309.299 418.834 309.448 417.724 309.448ZM418.332 306.44C419.548 306.44 420.54 306.099 421.308 305.416C422.076 304.712 422.46 303.773 422.46 302.6V302.28H418.108C417.319 302.28 416.679 302.451 416.188 302.792C415.698 303.133 415.452 303.635 415.452 304.296C415.452 304.936 415.708 305.459 416.22 305.864C416.732 306.248 417.436 306.44 418.332 306.44ZM430.657 309V293.192H434.273V295.4H434.817C435.095 294.803 435.596 294.237 436.321 293.704C437.047 293.171 438.145 292.904 439.617 292.904C440.833 292.904 441.911 293.181 442.849 293.736C443.788 294.291 444.513 295.059 445.025 296.04C445.559 297.021 445.825 298.184 445.825 299.528V309H442.145V299.816C442.145 298.536 441.825 297.587 441.185 296.968C440.567 296.328 439.681 296.008 438.529 296.008C437.228 296.008 436.204 296.445 435.457 297.32C434.711 298.173 434.337 299.4 434.337 301V309H430.657ZM456.233 309.448C454.185 309.448 452.499 309 451.177 308.104C449.854 307.208 449.054 305.896 448.777 304.168L452.169 303.304C452.318 304.115 452.585 304.755 452.969 305.224C453.353 305.693 453.822 306.024 454.377 306.216C454.953 306.408 455.571 306.504 456.233 306.504C457.235 306.504 457.982 306.323 458.473 305.96C458.985 305.597 459.241 305.139 459.241 304.584C459.241 304.008 458.995 303.581 458.505 303.304C458.035 303.027 457.31 302.792 456.329 302.6L455.337 302.44C454.249 302.227 453.257 301.939 452.361 301.576C451.465 301.192 450.739 300.68 450.185 300.04C449.651 299.379 449.385 298.547 449.385 297.544C449.385 296.008 449.95 294.824 451.081 293.992C452.233 293.16 453.737 292.744 455.593 292.744C457.363 292.744 458.825 293.139 459.977 293.928C461.129 294.717 461.875 295.773 462.217 297.096L458.825 298.12C458.654 297.224 458.281 296.595 457.705 296.232C457.129 295.848 456.425 295.656 455.593 295.656C454.739 295.656 454.078 295.805 453.609 296.104C453.161 296.403 452.937 296.829 452.937 297.384C452.937 297.939 453.171 298.355 453.641 298.632C454.11 298.909 454.739 299.112 455.529 299.24L456.521 299.432C457.694 299.645 458.75 299.923 459.689 300.264C460.649 300.605 461.406 301.096 461.961 301.736C462.515 302.376 462.793 303.24 462.793 304.328C462.793 305.971 462.195 307.24 461.001 308.136C459.827 309.011 458.238 309.448 456.233 309.448ZM480.785 309.448C479.121 309.448 477.639 309.149 476.337 308.552C475.057 307.955 474.055 307.101 473.329 305.992C472.604 304.861 472.241 303.517 472.241 301.96V301.384H475.953V301.864C475.953 303.165 476.391 304.2 477.265 304.968C478.161 305.736 479.335 306.12 480.785 306.12C482.236 306.12 483.367 305.768 484.177 305.064C484.988 304.339 485.393 303.432 485.393 302.344V302.056C485.393 301.288 485.201 300.669 484.817 300.2C484.455 299.731 483.953 299.389 483.313 299.176C482.695 298.941 481.991 298.824 481.201 298.824H476.913V294.664L484.497 290.408V289.928H472.785V286.6H488.593V291.592L481.425 295.624V296.104H482.737C483.804 296.104 484.817 296.317 485.777 296.744C486.759 297.149 487.559 297.779 488.177 298.632C488.796 299.485 489.105 300.595 489.105 301.96V302.312C489.105 303.763 488.753 305.021 488.049 306.088C487.367 307.155 486.396 307.987 485.137 308.584C483.9 309.16 482.449 309.448 480.785 309.448ZM494.463 309.448C493.652 309.448 492.97 309.181 492.415 308.648C491.882 308.115 491.615 307.432 491.615 306.6C491.615 305.789 491.882 305.117 492.415 304.584C492.97 304.051 493.652 303.784 494.463 303.784C495.274 303.784 495.946 304.051 496.479 304.584C497.012 305.117 497.279 305.8 497.279 306.632C497.279 307.464 497.012 308.147 496.479 308.68C495.946 309.192 495.274 309.448 494.463 309.448ZM494.463 298.376C493.652 298.376 492.97 298.109 492.415 297.576C491.882 297.043 491.615 296.36 491.615 295.528C491.615 294.717 491.882 294.045 492.415 293.512C492.97 292.979 493.652 292.712 494.463 292.712C495.274 292.712 495.946 292.979 496.479 293.512C497.012 294.045 497.279 294.728 497.279 295.56C497.279 296.392 497.012 297.075 496.479 297.608C495.946 298.12 495.274 298.376 494.463 298.376ZM499.842 309V306.408C499.842 304.829 500.098 303.539 500.61 302.536C501.144 301.512 501.901 300.68 502.882 300.04C503.864 299.379 505.058 298.835 506.466 298.408L508.514 297.768C509.346 297.491 510.05 297.16 510.626 296.776C511.202 296.392 511.65 295.923 511.97 295.368C512.29 294.792 512.45 294.12 512.45 293.352V293.224C512.45 292.072 512.056 291.165 511.266 290.504C510.477 289.821 509.421 289.48 508.098 289.48C506.776 289.48 505.698 289.843 504.866 290.568C504.034 291.272 503.618 292.317 503.618 293.704V294.248H499.906V293.768C499.906 292.147 500.269 290.771 500.994 289.64C501.72 288.509 502.701 287.645 503.938 287.048C505.176 286.451 506.562 286.152 508.098 286.152C509.634 286.152 511.01 286.451 512.226 287.048C513.464 287.624 514.424 288.435 515.106 289.48C515.81 290.525 516.162 291.752 516.162 293.16V293.48C516.162 294.909 515.874 296.115 515.298 297.096C514.722 298.077 513.922 298.888 512.898 299.528C511.896 300.147 510.754 300.659 509.474 301.064L507.49 301.672C506.53 301.971 505.762 302.291 505.186 302.632C504.632 302.973 504.237 303.368 504.002 303.816C503.768 304.243 503.65 304.787 503.65 305.448V305.672H515.97V309H499.842ZM527.161 309.448C524.537 309.448 522.436 308.712 520.857 307.24C519.278 305.768 518.489 303.549 518.489 300.584V295.016C518.489 292.115 519.278 289.917 520.857 288.424C522.436 286.909 524.537 286.152 527.161 286.152C529.806 286.152 531.908 286.909 533.465 288.424C535.044 289.917 535.833 292.115 535.833 295.016V300.584C535.833 303.549 535.044 305.768 533.465 307.24C531.908 308.712 529.806 309.448 527.161 309.448ZM527.161 306.12C528.846 306.12 530.084 305.651 530.873 304.712C531.684 303.773 532.089 302.44 532.089 300.712V294.856C532.089 293.107 531.652 291.773 530.777 290.856C529.902 289.939 528.697 289.48 527.161 289.48C525.582 289.48 524.366 289.949 523.513 290.888C522.66 291.827 522.233 293.149 522.233 294.856V300.712C522.233 302.483 522.638 303.827 523.449 304.744C524.281 305.661 525.518 306.12 527.161 306.12Z" fill="black"/>
<defs>
<filter id="filter0_d_503_441" x="0" y="0" width="883" height="363" filterUnits="userSpaceOnUse" color-interpolation-filters="sRGB">
<feFlood flood-opacity="0" result="BackgroundImageFix"/>
<feColorMatrix in="SourceAlpha" type="matrix" values="0 0 0 0 0 0 0 0 0 0 0 0 0 0 0 0 0 0 127 0" result="hardAlpha"/>
<feOffset dy="4"/>
<feGaussianBlur stdDeviation="2"/>
<feComposite in2="hardAlpha" operator="out"/>
<feColorMatrix type="matrix" values="0 0 0 0 0 0 0 0 0 0 0 0 0 0 0 0 0 0 0.25 0"/>
<feBlend mode="normal" in2="BackgroundImageFix" result="effect1_dropShadow_503_441"/>
<feBlend mode="normal" in="SourceGraphic" in2="effect1_dropShadow_503_441" result="shape"/>
</filter>
</defs>
</svg>
