<svg width="110" height="77" viewBox="0 0 110 77" fill="none" xmlns="http://www.w3.org/2000/svg">
<g clip-path="url(#clip0_225_28)">
<path d="M107.571 12.0099C106.94 9.68855 105.709 7.57228 104.001 5.8718C102.293 4.17131 100.167 2.94594 97.8356 2.3177C89.2995 0 54.9442 0 54.9442 0C54.9442 0 20.5873 0.0701554 12.0511 2.38786C9.7194 3.01613 7.59371 4.24157 5.8857 5.94213C4.17769 7.6427 2.94697 9.75905 2.3161 12.0804C-0.265894 27.1801 -1.2675 50.1886 2.387 64.6843C3.01794 67.0056 4.24869 69.1218 5.95669 70.8223C7.66469 72.5228 9.79035 73.7482 12.122 74.3764C20.6582 76.6941 55.0143 76.6941 55.0143 76.6941C55.0143 76.6941 89.3699 76.6941 97.9057 74.3764C100.237 73.7483 102.363 72.5229 104.071 70.8224C105.779 69.1219 107.01 67.0056 107.641 64.6843C110.364 49.5632 111.204 26.5688 107.571 12.0099Z" fill="#FF0000"/>
<path d="M44.0088 54.7813L72.5091 38.347L44.0088 21.9126V54.7813Z" fill="white"/>
</g>
<defs>
<clipPath id="clip0_225_28">
<rect width="110" height="77" fill="white"/>
</clipPath>
</defs>
</svg>
